<?xml version="1.0" encoding="utf-8" standalone="no"?>
<!DOCTYPE svg PUBLIC "-//W3C//DTD SVG 1.1//EN"
  "http://www.w3.org/Graphics/SVG/1.1/DTD/svg11.dtd">
<svg xmlns:xlink="http://www.w3.org/1999/xlink" width="1059.826071pt" height="217.485pt" viewBox="0 0 1059.826071 217.485" xmlns="http://www.w3.org/2000/svg" version="1.1">
 <metadata>
  <rdf:RDF xmlns:dc="http://purl.org/dc/elements/1.1/" xmlns:cc="http://creativecommons.org/ns#" xmlns:rdf="http://www.w3.org/1999/02/22-rdf-syntax-ns#">
   <cc:Work>
    <dc:type rdf:resource="http://purl.org/dc/dcmitype/StillImage"/>
    <dc:date>2026-02-06T19:10:46.327982</dc:date>
    <dc:format>image/svg+xml</dc:format>
    <dc:creator>
     <cc:Agent>
      <dc:title>Matplotlib v3.10.6, https://matplotlib.org/</dc:title>
     </cc:Agent>
    </dc:creator>
   </cc:Work>
  </rdf:RDF>
 </metadata>
 <defs>
  <style type="text/css">*{stroke-linejoin: round; stroke-linecap: butt}</style>
 </defs>
 <g id="figure_1">
  <g id="patch_1">
   <path d="M 0 217.485 
L 1059.826071 217.485 
L 1059.826071 0 
L 0 0 
z
" style="fill: #ffffff"/>
  </g>
  <g id="axes_1">
   <g id="patch_2">
    <path d="M 60.6575 173.52 
L 156.314643 173.52 
L 156.314643 7.2 
L 60.6575 7.2 
z
" style="fill: #ffffff"/>
   </g>
   <g id="patch_3">
    <path d="M 65.005552 173.52 
L 69.836721 173.52 
L 69.836721 151.468798 
L 65.005552 151.468798 
z
" clip-path="url(#p4e052f48ce)" style="fill: #f5f5f5; stroke: #000000; stroke-linejoin: miter"/>
   </g>
   <g id="patch_4">
    <path d="M 69.836721 173.52 
L 74.66789 173.52 
L 74.66789 152.573659 
L 69.836721 152.573659 
z
" clip-path="url(#p4e052f48ce)" style="fill: #f5f5f5; stroke: #000000; stroke-linejoin: miter"/>
   </g>
   <g id="patch_5">
    <path d="M 74.66789 173.52 
L 79.499058 173.52 
L 79.499058 153.218162 
L 74.66789 153.218162 
z
" clip-path="url(#p4e052f48ce)" style="fill: #f5f5f5; stroke: #000000; stroke-linejoin: miter"/>
   </g>
   <g id="patch_6">
    <path d="M 79.499058 173.52 
L 84.330227 173.52 
L 84.330227 152.251408 
L 79.499058 152.251408 
z
" clip-path="url(#p4e052f48ce)" style="fill: #f5f5f5; stroke: #000000; stroke-linejoin: miter"/>
   </g>
   <g id="patch_7">
    <path d="M 84.330227 173.52 
L 89.161396 173.52 
L 89.161396 152.665731 
L 84.330227 152.665731 
z
" clip-path="url(#p4e052f48ce)" style="fill: #f5f5f5; stroke: #000000; stroke-linejoin: miter"/>
   </g>
   <g id="patch_8">
    <path d="M 89.161396 173.52 
L 93.992565 173.52 
L 93.992565 151.514833 
L 89.161396 151.514833 
z
" clip-path="url(#p4e052f48ce)" style="fill: #f5f5f5; stroke: #000000; stroke-linejoin: miter"/>
   </g>
   <g id="patch_9">
    <path d="M 93.992565 173.52 
L 98.823734 173.52 
L 98.823734 151.008438 
L 93.992565 151.008438 
z
" clip-path="url(#p4e052f48ce)" style="fill: #f5f5f5; stroke: #000000; stroke-linejoin: miter"/>
   </g>
   <g id="patch_10">
    <path d="M 98.823734 173.52 
L 103.654903 173.52 
L 103.654903 150.732223 
L 98.823734 150.732223 
z
" clip-path="url(#p4e052f48ce)" style="fill: #f5f5f5; stroke: #000000; stroke-linejoin: miter"/>
   </g>
   <g id="patch_11">
    <path d="M 103.654903 173.52 
L 108.486071 173.52 
L 108.486071 150.640151 
L 103.654903 150.640151 
z
" clip-path="url(#p4e052f48ce)" style="fill: #f5f5f5; stroke: #000000; stroke-linejoin: miter"/>
   </g>
   <g id="patch_12">
    <path d="M 108.486071 173.52 
L 113.31724 173.52 
L 113.31724 150.686187 
L 108.486071 150.686187 
z
" clip-path="url(#p4e052f48ce)" style="fill: #f5f5f5; stroke: #000000; stroke-linejoin: miter"/>
   </g>
   <g id="patch_13">
    <path d="M 113.31724 173.52 
L 118.148409 173.52 
L 118.148409 150.548079 
L 113.31724 150.548079 
z
" clip-path="url(#p4e052f48ce)" style="fill: #f5f5f5; stroke: #000000; stroke-linejoin: miter"/>
   </g>
   <g id="patch_14">
    <path d="M 118.148409 173.52 
L 122.979578 173.52 
L 122.979578 150.456007 
L 118.148409 150.456007 
z
" clip-path="url(#p4e052f48ce)" style="fill: #f5f5f5; stroke: #000000; stroke-linejoin: miter"/>
   </g>
   <g id="patch_15">
    <path d="M 122.979578 173.52 
L 127.810747 173.52 
L 127.810747 149.443217 
L 122.979578 149.443217 
z
" clip-path="url(#p4e052f48ce)" style="fill: #f5f5f5; stroke: #000000; stroke-linejoin: miter"/>
   </g>
   <g id="patch_16">
    <path d="M 127.810747 173.52 
L 132.641916 173.52 
L 132.641916 148.660607 
L 127.810747 148.660607 
z
" clip-path="url(#p4e052f48ce)" style="fill: #f5f5f5; stroke: #000000; stroke-linejoin: miter"/>
   </g>
   <g id="patch_17">
    <path d="M 132.641916 173.52 
L 137.473084 173.52 
L 137.473084 147.601781 
L 132.641916 147.601781 
z
" clip-path="url(#p4e052f48ce)" style="fill: #f5f5f5; stroke: #000000; stroke-linejoin: miter"/>
   </g>
   <g id="patch_18">
    <path d="M 137.473084 173.52 
L 142.304253 173.52 
L 142.304253 147.877996 
L 137.473084 147.877996 
z
" clip-path="url(#p4e052f48ce)" style="fill: #f5f5f5; stroke: #000000; stroke-linejoin: miter"/>
   </g>
   <g id="patch_19">
    <path d="M 142.304253 173.52 
L 147.135422 173.52 
L 147.135422 148.246284 
L 142.304253 148.246284 
z
" clip-path="url(#p4e052f48ce)" style="fill: #f5f5f5; stroke: #000000; stroke-linejoin: miter"/>
   </g>
   <g id="patch_20">
    <path d="M 147.135422 173.52 
L 151.966591 173.52 
L 151.966591 149.443217 
L 147.135422 149.443217 
z
" clip-path="url(#p4e052f48ce)" style="fill: #f5f5f5; stroke: #000000; stroke-linejoin: miter"/>
   </g>
   <g id="matplotlib.axis_1">
    <g id="xtick_1">
     <g id="line2d_1">
      <defs>
       <path id="m3751abe07e" d="M 0 0 
L 0 -3.5 
" style="stroke: #000000; stroke-width: 0.8"/>
      </defs>
      <g>
       <use xlink:href="#m3751abe07e" x="65.005552" y="173.52" style="stroke: #000000; stroke-width: 0.8"/>
      </g>
     </g>
     <g id="text_1">
      <!-- $0$ -->
      <g transform="translate(61.005552 188.4725) scale(0.16 -0.16)">
       <defs>
        <path id="STIXGeneral-Regular-30" d="M 3046 2112 
Q 3046 1683 2963 1302 
Q 2880 922 2717 602 
Q 2554 282 2266 96 
Q 1978 -90 1600 -90 
Q 1210 -90 915 108 
Q 621 307 461 640 
Q 301 973 227 1350 
Q 154 1728 154 2150 
Q 154 2746 301 3222 
Q 448 3699 790 4012 
Q 1133 4326 1626 4326 
Q 2253 4326 2649 3712 
Q 3046 3098 3046 2112 
z
M 2432 2080 
Q 2432 3091 2217 3625 
Q 2003 4160 1587 4160 
Q 1190 4160 979 3622 
Q 768 3085 768 2106 
Q 768 1120 979 598 
Q 1190 77 1600 77 
Q 2003 77 2217 598 
Q 2432 1120 2432 2080 
z
" transform="scale(0.015625)"/>
       </defs>
       <use xlink:href="#STIXGeneral-Regular-30" transform="translate(0 0.40625)"/>
      </g>
     </g>
    </g>
    <g id="xtick_2">
     <g id="line2d_2">
      <g>
       <use xlink:href="#m3751abe07e" x="108.486071" y="173.52" style="stroke: #000000; stroke-width: 0.8"/>
      </g>
     </g>
     <g id="text_2">
      <!-- $\pi$ -->
      <g transform="translate(104.406071 188.4725) scale(0.16 -0.16)">
       <defs>
        <path id="STIXGeneral-Italic-3c0" d="M 3430 2739 
L 3296 2266 
L 2643 2266 
Q 2624 2195 2502 1782 
Q 2381 1370 2297 1072 
Q 2214 774 2214 717 
Q 2214 448 2413 448 
Q 2694 448 2867 838 
L 2970 838 
Q 2886 486 2652 208 
Q 2419 -70 2093 -70 
Q 1901 -70 1808 67 
Q 1715 205 1715 410 
Q 1715 627 1824 922 
L 2310 2266 
L 1645 2266 
Q 1568 2061 1401 1469 
Q 1235 877 1068 512 
Q 902 147 672 -38 
Q 563 -115 442 -115 
Q 314 -115 218 -32 
Q 122 51 122 166 
Q 122 429 314 480 
Q 634 563 774 928 
L 1299 2266 
L 1261 2266 
Q 973 2266 819 2208 
Q 666 2150 474 1914 
L 371 1914 
Q 640 2362 931 2550 
Q 1222 2739 1696 2739 
L 3430 2739 
z
" transform="scale(0.015625)"/>
       </defs>
       <use xlink:href="#STIXGeneral-Italic-3c0" transform="translate(0 0.203125)"/>
      </g>
     </g>
    </g>
    <g id="xtick_3">
     <g id="line2d_3">
      <g>
       <use xlink:href="#m3751abe07e" x="151.966591" y="173.52" style="stroke: #000000; stroke-width: 0.8"/>
      </g>
     </g>
     <g id="text_3">
      <!-- $2 \pi$ -->
      <g transform="translate(143.886591 188.4725) scale(0.16 -0.16)">
       <defs>
        <path id="STIXGeneral-Regular-32" d="M 3034 877 
L 2688 0 
L 186 0 
L 186 77 
L 1325 1286 
Q 1773 1754 1965 2144 
Q 2157 2534 2157 2950 
Q 2157 3379 1920 3616 
Q 1683 3853 1267 3853 
Q 922 3853 720 3673 
Q 518 3494 326 3021 
L 192 3053 
Q 301 3648 630 3987 
Q 960 4326 1523 4326 
Q 2054 4326 2380 4006 
Q 2707 3686 2707 3200 
Q 2707 2477 1888 1613 
L 832 486 
L 2330 486 
Q 2541 486 2665 569 
Q 2790 653 2944 915 
L 3034 877 
z
" transform="scale(0.015625)"/>
       </defs>
       <use xlink:href="#STIXGeneral-Regular-32" transform="translate(0 0.40625)"/>
       <use xlink:href="#STIXGeneral-Italic-3c0" transform="translate(49.999985 0.40625)"/>
      </g>
     </g>
    </g>
    <g id="text_4">
     <!-- $\theta_{0} - \theta_{1} $ -->
     <g transform="translate(86.646071 207.105) scale(0.16 -0.16)">
      <defs>
       <path id="STIXGeneral-Italic-3b8" d="M 3162 3270 
Q 3162 2534 2925 1862 
Q 2688 1190 2304 678 
Q 1741 -70 992 -70 
Q 608 -70 390 224 
Q 173 518 173 1030 
Q 173 1997 592 2813 
Q 1011 3629 1594 4070 
Q 1952 4339 2374 4339 
Q 2733 4339 2947 4076 
Q 3162 3814 3162 3270 
z
M 941 2221 
L 2432 2221 
Q 2624 2874 2624 3533 
Q 2624 4205 2285 4205 
Q 2029 4205 1728 3814 
Q 1427 3424 1232 2992 
Q 1037 2560 941 2221 
z
M 2387 2016 
L 896 2016 
Q 710 1530 710 960 
Q 710 64 1069 64 
Q 1286 64 1510 275 
Q 1734 486 1904 806 
Q 2074 1126 2198 1440 
Q 2323 1754 2387 2016 
z
" transform="scale(0.015625)"/>
       <path id="STIXGeneral-Regular-2212" d="M 3974 1408 
L 410 1408 
L 410 1830 
L 3974 1830 
L 3974 1408 
z
" transform="scale(0.015625)"/>
       <path id="STIXGeneral-Regular-31" d="M 2522 0 
L 755 0 
L 755 96 
Q 1107 115 1235 227 
Q 1363 339 1363 608 
L 1363 3482 
Q 1363 3795 1171 3795 
Q 1082 3795 883 3718 
L 710 3654 
L 710 3744 
L 1856 4326 
L 1914 4307 
L 1914 486 
Q 1914 275 2042 185 
Q 2170 96 2522 96 
L 2522 0 
z
" transform="scale(0.015625)"/>
      </defs>
      <use xlink:href="#STIXGeneral-Italic-3b8" transform="translate(0 0.203125)"/>
      <use xlink:href="#STIXGeneral-Regular-30" transform="translate(47.999985 -13.025) scale(0.7)"/>
      <use xlink:href="#STIXGeneral-Regular-2212" transform="translate(101.849345 0.203125)"/>
      <use xlink:href="#STIXGeneral-Italic-3b8" transform="translate(184.789326 0.203125)"/>
      <use xlink:href="#STIXGeneral-Regular-31" transform="translate(232.789311 -13.025) scale(0.7)"/>
     </g>
    </g>
   </g>
   <g id="matplotlib.axis_2">
    <g id="ytick_1">
     <g id="line2d_4">
      <defs>
       <path id="m10e7585db3" d="M 0 0 
L 3.5 0 
" style="stroke: #000000; stroke-width: 0.8"/>
      </defs>
      <g>
       <use xlink:href="#m10e7585db3" x="60.6575" y="173.52" style="stroke: #000000; stroke-width: 0.8"/>
      </g>
     </g>
     <g id="text_5">
      <!-- 0.00 -->
      <g transform="translate(26.02 179.24625) scale(0.16 -0.16)">
       <defs>
        <path id="ArialMT-30" d="M 266 2259 
Q 266 3072 433 3567 
Q 600 4063 929 4331 
Q 1259 4600 1759 4600 
Q 2128 4600 2406 4451 
Q 2684 4303 2865 4023 
Q 3047 3744 3150 3342 
Q 3253 2941 3253 2259 
Q 3253 1453 3087 958 
Q 2922 463 2592 192 
Q 2263 -78 1759 -78 
Q 1097 -78 719 397 
Q 266 969 266 2259 
z
M 844 2259 
Q 844 1131 1108 757 
Q 1372 384 1759 384 
Q 2147 384 2411 759 
Q 2675 1134 2675 2259 
Q 2675 3391 2411 3762 
Q 2147 4134 1753 4134 
Q 1366 4134 1134 3806 
Q 844 3388 844 2259 
z
" transform="scale(0.015625)"/>
        <path id="ArialMT-2e" d="M 581 0 
L 581 641 
L 1222 641 
L 1222 0 
L 581 0 
z
" transform="scale(0.015625)"/>
       </defs>
       <use xlink:href="#ArialMT-30"/>
       <use xlink:href="#ArialMT-2e" transform="translate(55.615234 0)"/>
       <use xlink:href="#ArialMT-30" transform="translate(83.398438 0)"/>
       <use xlink:href="#ArialMT-30" transform="translate(139.013672 0)"/>
      </g>
     </g>
    </g>
    <g id="ytick_2">
     <g id="line2d_5">
      <g>
       <use xlink:href="#m10e7585db3" x="60.6575" y="137.363478" style="stroke: #000000; stroke-width: 0.8"/>
      </g>
     </g>
     <g id="text_6">
      <!-- 0.25 -->
      <g transform="translate(26.02 143.089728) scale(0.16 -0.16)">
       <defs>
        <path id="ArialMT-32" d="M 3222 541 
L 3222 0 
L 194 0 
Q 188 203 259 391 
Q 375 700 629 1000 
Q 884 1300 1366 1694 
Q 2113 2306 2375 2664 
Q 2638 3022 2638 3341 
Q 2638 3675 2398 3904 
Q 2159 4134 1775 4134 
Q 1369 4134 1125 3890 
Q 881 3647 878 3216 
L 300 3275 
Q 359 3922 746 4261 
Q 1134 4600 1788 4600 
Q 2447 4600 2831 4234 
Q 3216 3869 3216 3328 
Q 3216 3053 3103 2787 
Q 2991 2522 2730 2228 
Q 2469 1934 1863 1422 
Q 1356 997 1212 845 
Q 1069 694 975 541 
L 3222 541 
z
" transform="scale(0.015625)"/>
        <path id="ArialMT-35" d="M 266 1200 
L 856 1250 
Q 922 819 1161 601 
Q 1400 384 1738 384 
Q 2144 384 2425 690 
Q 2706 997 2706 1503 
Q 2706 1984 2436 2262 
Q 2166 2541 1728 2541 
Q 1456 2541 1237 2417 
Q 1019 2294 894 2097 
L 366 2166 
L 809 4519 
L 3088 4519 
L 3088 3981 
L 1259 3981 
L 1013 2750 
Q 1425 3038 1878 3038 
Q 2478 3038 2890 2622 
Q 3303 2206 3303 1553 
Q 3303 931 2941 478 
Q 2500 -78 1738 -78 
Q 1113 -78 717 272 
Q 322 622 266 1200 
z
" transform="scale(0.015625)"/>
       </defs>
       <use xlink:href="#ArialMT-30"/>
       <use xlink:href="#ArialMT-2e" transform="translate(55.615234 0)"/>
       <use xlink:href="#ArialMT-32" transform="translate(83.398438 0)"/>
       <use xlink:href="#ArialMT-35" transform="translate(139.013672 0)"/>
      </g>
     </g>
    </g>
    <g id="ytick_3">
     <g id="line2d_6">
      <g>
       <use xlink:href="#m10e7585db3" x="60.6575" y="101.206957" style="stroke: #000000; stroke-width: 0.8"/>
      </g>
     </g>
     <g id="text_7">
      <!-- 0.50 -->
      <g transform="translate(26.02 106.933207) scale(0.16 -0.16)">
       <use xlink:href="#ArialMT-30"/>
       <use xlink:href="#ArialMT-2e" transform="translate(55.615234 0)"/>
       <use xlink:href="#ArialMT-35" transform="translate(83.398438 0)"/>
       <use xlink:href="#ArialMT-30" transform="translate(139.013672 0)"/>
      </g>
     </g>
    </g>
    <g id="ytick_4">
     <g id="line2d_7">
      <g>
       <use xlink:href="#m10e7585db3" x="60.6575" y="65.050435" style="stroke: #000000; stroke-width: 0.8"/>
      </g>
     </g>
     <g id="text_8">
      <!-- 0.75 -->
      <g transform="translate(26.02 70.776685) scale(0.16 -0.16)">
       <defs>
        <path id="ArialMT-37" d="M 303 3981 
L 303 4522 
L 3269 4522 
L 3269 4084 
Q 2831 3619 2401 2847 
Q 1972 2075 1738 1259 
Q 1569 684 1522 0 
L 944 0 
Q 953 541 1156 1306 
Q 1359 2072 1739 2783 
Q 2119 3494 2547 3981 
L 303 3981 
z
" transform="scale(0.015625)"/>
       </defs>
       <use xlink:href="#ArialMT-30"/>
       <use xlink:href="#ArialMT-2e" transform="translate(55.615234 0)"/>
       <use xlink:href="#ArialMT-37" transform="translate(83.398438 0)"/>
       <use xlink:href="#ArialMT-35" transform="translate(139.013672 0)"/>
      </g>
     </g>
    </g>
    <g id="ytick_5">
     <g id="line2d_8">
      <g>
       <use xlink:href="#m10e7585db3" x="60.6575" y="28.893913" style="stroke: #000000; stroke-width: 0.8"/>
      </g>
     </g>
     <g id="text_9">
      <!-- 1.00 -->
      <g transform="translate(26.02 34.620163) scale(0.16 -0.16)">
       <defs>
        <path id="ArialMT-31" d="M 2384 0 
L 1822 0 
L 1822 3584 
Q 1619 3391 1289 3197 
Q 959 3003 697 2906 
L 697 3450 
Q 1169 3672 1522 3987 
Q 1875 4303 2022 4600 
L 2384 4600 
L 2384 0 
z
" transform="scale(0.015625)"/>
       </defs>
       <use xlink:href="#ArialMT-31"/>
       <use xlink:href="#ArialMT-2e" transform="translate(55.615234 0)"/>
       <use xlink:href="#ArialMT-30" transform="translate(83.398438 0)"/>
       <use xlink:href="#ArialMT-30" transform="translate(139.013672 0)"/>
      </g>
     </g>
    </g>
    <g id="text_10">
     <!-- density -->
     <g transform="translate(18.6525 115.70625) rotate(-90) scale(0.16 -0.16)">
      <defs>
       <path id="ArialMT-64" d="M 2575 0 
L 2575 419 
Q 2259 -75 1647 -75 
Q 1250 -75 917 144 
Q 584 363 401 755 
Q 219 1147 219 1656 
Q 219 2153 384 2558 
Q 550 2963 881 3178 
Q 1213 3394 1622 3394 
Q 1922 3394 2156 3267 
Q 2391 3141 2538 2938 
L 2538 4581 
L 3097 4581 
L 3097 0 
L 2575 0 
z
M 797 1656 
Q 797 1019 1065 703 
Q 1334 388 1700 388 
Q 2069 388 2326 689 
Q 2584 991 2584 1609 
Q 2584 2291 2321 2609 
Q 2059 2928 1675 2928 
Q 1300 2928 1048 2622 
Q 797 2316 797 1656 
z
" transform="scale(0.015625)"/>
       <path id="ArialMT-65" d="M 2694 1069 
L 3275 997 
Q 3138 488 2766 206 
Q 2394 -75 1816 -75 
Q 1088 -75 661 373 
Q 234 822 234 1631 
Q 234 2469 665 2931 
Q 1097 3394 1784 3394 
Q 2450 3394 2872 2941 
Q 3294 2488 3294 1666 
Q 3294 1616 3291 1516 
L 816 1516 
Q 847 969 1125 678 
Q 1403 388 1819 388 
Q 2128 388 2347 550 
Q 2566 713 2694 1069 
z
M 847 1978 
L 2700 1978 
Q 2663 2397 2488 2606 
Q 2219 2931 1791 2931 
Q 1403 2931 1139 2672 
Q 875 2413 847 1978 
z
" transform="scale(0.015625)"/>
       <path id="ArialMT-6e" d="M 422 0 
L 422 3319 
L 928 3319 
L 928 2847 
Q 1294 3394 1984 3394 
Q 2284 3394 2536 3286 
Q 2788 3178 2913 3003 
Q 3038 2828 3088 2588 
Q 3119 2431 3119 2041 
L 3119 0 
L 2556 0 
L 2556 2019 
Q 2556 2363 2490 2533 
Q 2425 2703 2258 2804 
Q 2091 2906 1866 2906 
Q 1506 2906 1245 2678 
Q 984 2450 984 1813 
L 984 0 
L 422 0 
z
" transform="scale(0.015625)"/>
       <path id="ArialMT-73" d="M 197 991 
L 753 1078 
Q 800 744 1014 566 
Q 1228 388 1613 388 
Q 2000 388 2187 545 
Q 2375 703 2375 916 
Q 2375 1106 2209 1216 
Q 2094 1291 1634 1406 
Q 1016 1563 777 1677 
Q 538 1791 414 1992 
Q 291 2194 291 2438 
Q 291 2659 392 2848 
Q 494 3038 669 3163 
Q 800 3259 1026 3326 
Q 1253 3394 1513 3394 
Q 1903 3394 2198 3281 
Q 2494 3169 2634 2976 
Q 2775 2784 2828 2463 
L 2278 2388 
Q 2241 2644 2061 2787 
Q 1881 2931 1553 2931 
Q 1166 2931 1000 2803 
Q 834 2675 834 2503 
Q 834 2394 903 2306 
Q 972 2216 1119 2156 
Q 1203 2125 1616 2013 
Q 2213 1853 2448 1751 
Q 2684 1650 2818 1456 
Q 2953 1263 2953 975 
Q 2953 694 2789 445 
Q 2625 197 2315 61 
Q 2006 -75 1616 -75 
Q 969 -75 630 194 
Q 291 463 197 991 
z
" transform="scale(0.015625)"/>
       <path id="ArialMT-69" d="M 425 3934 
L 425 4581 
L 988 4581 
L 988 3934 
L 425 3934 
z
M 425 0 
L 425 3319 
L 988 3319 
L 988 0 
L 425 0 
z
" transform="scale(0.015625)"/>
       <path id="ArialMT-74" d="M 1650 503 
L 1731 6 
Q 1494 -44 1306 -44 
Q 1000 -44 831 53 
Q 663 150 594 308 
Q 525 466 525 972 
L 525 2881 
L 113 2881 
L 113 3319 
L 525 3319 
L 525 4141 
L 1084 4478 
L 1084 3319 
L 1650 3319 
L 1650 2881 
L 1084 2881 
L 1084 941 
Q 1084 700 1114 631 
Q 1144 563 1211 522 
Q 1278 481 1403 481 
Q 1497 481 1650 503 
z
" transform="scale(0.015625)"/>
       <path id="ArialMT-79" d="M 397 -1278 
L 334 -750 
Q 519 -800 656 -800 
Q 844 -800 956 -737 
Q 1069 -675 1141 -563 
Q 1194 -478 1313 -144 
Q 1328 -97 1363 -6 
L 103 3319 
L 709 3319 
L 1400 1397 
Q 1534 1031 1641 628 
Q 1738 1016 1872 1384 
L 2581 3319 
L 3144 3319 
L 1881 -56 
Q 1678 -603 1566 -809 
Q 1416 -1088 1222 -1217 
Q 1028 -1347 759 -1347 
Q 597 -1347 397 -1278 
z
" transform="scale(0.015625)"/>
      </defs>
      <use xlink:href="#ArialMT-64"/>
      <use xlink:href="#ArialMT-65" transform="translate(55.615234 0)"/>
      <use xlink:href="#ArialMT-6e" transform="translate(111.230469 0)"/>
      <use xlink:href="#ArialMT-73" transform="translate(166.845703 0)"/>
      <use xlink:href="#ArialMT-69" transform="translate(216.845703 0)"/>
      <use xlink:href="#ArialMT-74" transform="translate(239.0625 0)"/>
      <use xlink:href="#ArialMT-79" transform="translate(266.845703 0)"/>
     </g>
    </g>
   </g>
   <g id="line2d_9">
    <path d="M 137.058984 173.52 
L 137.058984 14.431304 
" clip-path="url(#p4e052f48ce)" style="fill: none; stroke-dasharray: 7.4,3.2; stroke-dashoffset: 0; stroke: #ff0000; stroke-width: 2"/>
   </g>
   <g id="line2d_10">
    <path d="M 65.005552 150.504399 
L 67.490153 151.196531 
L 69.974754 151.800021 
L 72.459355 152.280441 
L 74.943956 152.618091 
L 77.428558 152.805575 
L 79.913159 152.845624 
L 82.39776 152.749707 
L 84.882361 152.537422 
L 87.366962 152.236158 
L 89.851563 151.88032 
L 92.336164 151.509258 
L 94.820765 151.163314 
L 97.305366 150.878065 
L 99.789968 150.677918 
L 102.274569 150.571054 
L 104.75917 150.547686 
L 107.243771 150.582451 
L 109.728372 150.640004 
L 112.212973 150.681835 
L 114.697574 150.672412 
L 117.182175 150.583695 
L 119.666776 150.398105 
L 122.151378 150.110538 
L 124.635979 149.730013 
L 127.12058 149.281072 
L 129.605181 148.804362 
L 132.089782 148.355085 
L 134.574383 147.997674 
L 137.058984 147.795701 
L 139.543585 147.798152 
L 142.028186 148.026124 
L 144.512788 148.465654 
L 146.997389 149.070554 
L 149.48199 149.774145 
L 151.966591 150.504399 
" clip-path="url(#p4e052f48ce)" style="fill: none; stroke: #0000ff; stroke-width: 2; stroke-linecap: square"/>
   </g>
   <g id="patch_21">
    <path d="M 60.6575 173.52 
L 60.6575 7.2 
" style="fill: none; stroke: #000000; stroke-width: 0.8; stroke-linejoin: miter; stroke-linecap: square"/>
   </g>
   <g id="patch_22">
    <path d="M 156.314643 173.52 
L 156.314643 7.2 
" style="fill: none; stroke: #000000; stroke-width: 0.8; stroke-linejoin: miter; stroke-linecap: square"/>
   </g>
   <g id="patch_23">
    <path d="M 60.6575 173.52 
L 156.314643 173.52 
" style="fill: none; stroke: #000000; stroke-width: 0.8; stroke-linejoin: miter; stroke-linecap: square"/>
   </g>
   <g id="patch_24">
    <path d="M 60.6575 7.2 
L 156.314643 7.2 
" style="fill: none; stroke: #000000; stroke-width: 0.8; stroke-linejoin: miter; stroke-linecap: square"/>
   </g>
  </g>
  <g id="axes_2">
   <g id="patch_25">
    <path d="M 204.143214 173.52 
L 299.800357 173.52 
L 299.800357 7.2 
L 204.143214 7.2 
z
" style="fill: #ffffff"/>
   </g>
   <g id="patch_26">
    <path d="M 208.491266 173.52 
L 213.322435 173.52 
L 213.322435 150.916367 
L 208.491266 150.916367 
z
" clip-path="url(#p8d1756f8f6)" style="fill: #f5f5f5; stroke: #000000; stroke-linejoin: miter"/>
   </g>
   <g id="patch_27">
    <path d="M 213.322435 173.52 
L 218.153604 173.52 
L 218.153604 150.594115 
L 213.322435 150.594115 
z
" clip-path="url(#p8d1756f8f6)" style="fill: #f5f5f5; stroke: #000000; stroke-linejoin: miter"/>
   </g>
   <g id="patch_28">
    <path d="M 218.153604 173.52 
L 222.984773 173.52 
L 222.984773 150.594115 
L 218.153604 150.594115 
z
" clip-path="url(#p8d1756f8f6)" style="fill: #f5f5f5; stroke: #000000; stroke-linejoin: miter"/>
   </g>
   <g id="patch_29">
    <path d="M 222.984773 173.52 
L 227.815942 173.52 
L 227.815942 150.502043 
L 222.984773 150.502043 
z
" clip-path="url(#p8d1756f8f6)" style="fill: #f5f5f5; stroke: #000000; stroke-linejoin: miter"/>
   </g>
   <g id="patch_30">
    <path d="M 227.815942 173.52 
L 232.64711 173.52 
L 232.64711 150.502043 
L 227.815942 150.502043 
z
" clip-path="url(#p8d1756f8f6)" style="fill: #f5f5f5; stroke: #000000; stroke-linejoin: miter"/>
   </g>
   <g id="patch_31">
    <path d="M 232.64711 173.52 
L 237.478279 173.52 
L 237.478279 150.962402 
L 232.64711 150.962402 
z
" clip-path="url(#p8d1756f8f6)" style="fill: #f5f5f5; stroke: #000000; stroke-linejoin: miter"/>
   </g>
   <g id="patch_32">
    <path d="M 237.478279 173.52 
L 242.309448 173.52 
L 242.309448 150.225828 
L 237.478279 150.225828 
z
" clip-path="url(#p8d1756f8f6)" style="fill: #f5f5f5; stroke: #000000; stroke-linejoin: miter"/>
   </g>
   <g id="patch_33">
    <path d="M 242.309448 173.52 
L 247.140617 173.52 
L 247.140617 150.271864 
L 242.309448 150.271864 
z
" clip-path="url(#p8d1756f8f6)" style="fill: #f5f5f5; stroke: #000000; stroke-linejoin: miter"/>
   </g>
   <g id="patch_34">
    <path d="M 247.140617 173.52 
L 251.971786 173.52 
L 251.971786 150.870331 
L 247.140617 150.870331 
z
" clip-path="url(#p8d1756f8f6)" style="fill: #f5f5f5; stroke: #000000; stroke-linejoin: miter"/>
   </g>
   <g id="patch_35">
    <path d="M 251.971786 173.52 
L 256.802955 173.52 
L 256.802955 150.640151 
L 251.971786 150.640151 
z
" clip-path="url(#p8d1756f8f6)" style="fill: #f5f5f5; stroke: #000000; stroke-linejoin: miter"/>
   </g>
   <g id="patch_36">
    <path d="M 256.802955 173.52 
L 261.634123 173.52 
L 261.634123 150.3179 
L 256.802955 150.3179 
z
" clip-path="url(#p8d1756f8f6)" style="fill: #f5f5f5; stroke: #000000; stroke-linejoin: miter"/>
   </g>
   <g id="patch_37">
    <path d="M 261.634123 173.52 
L 266.465292 173.52 
L 266.465292 150.409972 
L 261.634123 150.409972 
z
" clip-path="url(#p8d1756f8f6)" style="fill: #f5f5f5; stroke: #000000; stroke-linejoin: miter"/>
   </g>
   <g id="patch_38">
    <path d="M 266.465292 173.52 
L 271.296461 173.52 
L 271.296461 150.179792 
L 266.465292 150.179792 
z
" clip-path="url(#p8d1756f8f6)" style="fill: #f5f5f5; stroke: #000000; stroke-linejoin: miter"/>
   </g>
   <g id="patch_39">
    <path d="M 271.296461 173.52 
L 276.12763 173.52 
L 276.12763 150.271864 
L 271.296461 150.271864 
z
" clip-path="url(#p8d1756f8f6)" style="fill: #f5f5f5; stroke: #000000; stroke-linejoin: miter"/>
   </g>
   <g id="patch_40">
    <path d="M 276.12763 173.52 
L 280.958799 173.52 
L 280.958799 150.363936 
L 276.12763 150.363936 
z
" clip-path="url(#p8d1756f8f6)" style="fill: #f5f5f5; stroke: #000000; stroke-linejoin: miter"/>
   </g>
   <g id="patch_41">
    <path d="M 280.958799 173.52 
L 285.789968 173.52 
L 285.789968 150.363936 
L 280.958799 150.363936 
z
" clip-path="url(#p8d1756f8f6)" style="fill: #f5f5f5; stroke: #000000; stroke-linejoin: miter"/>
   </g>
   <g id="patch_42">
    <path d="M 285.789968 173.52 
L 290.621136 173.52 
L 290.621136 150.640151 
L 285.789968 150.640151 
z
" clip-path="url(#p8d1756f8f6)" style="fill: #f5f5f5; stroke: #000000; stroke-linejoin: miter"/>
   </g>
   <g id="patch_43">
    <path d="M 290.621136 173.52 
L 295.452305 173.52 
L 295.452305 150.409972 
L 290.621136 150.409972 
z
" clip-path="url(#p8d1756f8f6)" style="fill: #f5f5f5; stroke: #000000; stroke-linejoin: miter"/>
   </g>
   <g id="matplotlib.axis_3">
    <g id="xtick_4">
     <g id="line2d_11">
      <g>
       <use xlink:href="#m3751abe07e" x="208.491266" y="173.52" style="stroke: #000000; stroke-width: 0.8"/>
      </g>
     </g>
     <g id="text_11">
      <!-- $0$ -->
      <g transform="translate(204.491266 188.4725) scale(0.16 -0.16)">
       <use xlink:href="#STIXGeneral-Regular-30" transform="translate(0 0.40625)"/>
      </g>
     </g>
    </g>
    <g id="xtick_5">
     <g id="line2d_12">
      <g>
       <use xlink:href="#m3751abe07e" x="251.971786" y="173.52" style="stroke: #000000; stroke-width: 0.8"/>
      </g>
     </g>
     <g id="text_12">
      <!-- $\pi$ -->
      <g transform="translate(247.891786 188.4725) scale(0.16 -0.16)">
       <use xlink:href="#STIXGeneral-Italic-3c0" transform="translate(0 0.203125)"/>
      </g>
     </g>
    </g>
    <g id="xtick_6">
     <g id="line2d_13">
      <g>
       <use xlink:href="#m3751abe07e" x="295.452305" y="173.52" style="stroke: #000000; stroke-width: 0.8"/>
      </g>
     </g>
     <g id="text_13">
      <!-- $2 \pi$ -->
      <g transform="translate(287.372305 188.4725) scale(0.16 -0.16)">
       <use xlink:href="#STIXGeneral-Regular-32" transform="translate(0 0.40625)"/>
       <use xlink:href="#STIXGeneral-Italic-3c0" transform="translate(49.999985 0.40625)"/>
      </g>
     </g>
    </g>
    <g id="text_14">
     <!-- $\theta_{0} - \theta_{2} $ -->
     <g transform="translate(230.131786 207.105) scale(0.16 -0.16)">
      <use xlink:href="#STIXGeneral-Italic-3b8" transform="translate(0 0.203125)"/>
      <use xlink:href="#STIXGeneral-Regular-30" transform="translate(47.999985 -13.025) scale(0.7)"/>
      <use xlink:href="#STIXGeneral-Regular-2212" transform="translate(101.849345 0.203125)"/>
      <use xlink:href="#STIXGeneral-Italic-3b8" transform="translate(184.789326 0.203125)"/>
      <use xlink:href="#STIXGeneral-Regular-32" transform="translate(232.789311 -13.025) scale(0.7)"/>
     </g>
    </g>
   </g>
   <g id="matplotlib.axis_4">
    <g id="ytick_6">
     <g id="line2d_14">
      <g>
       <use xlink:href="#m10e7585db3" x="204.143214" y="173.52" style="stroke: #000000; stroke-width: 0.8"/>
      </g>
     </g>
     <g id="text_15">
      <!-- 0.00 -->
      <g transform="translate(169.505714 179.24625) scale(0.16 -0.16)">
       <use xlink:href="#ArialMT-30"/>
       <use xlink:href="#ArialMT-2e" transform="translate(55.615234 0)"/>
       <use xlink:href="#ArialMT-30" transform="translate(83.398438 0)"/>
       <use xlink:href="#ArialMT-30" transform="translate(139.013672 0)"/>
      </g>
     </g>
    </g>
    <g id="ytick_7">
     <g id="line2d_15">
      <g>
       <use xlink:href="#m10e7585db3" x="204.143214" y="137.363478" style="stroke: #000000; stroke-width: 0.8"/>
      </g>
     </g>
     <g id="text_16">
      <!-- 0.25 -->
      <g transform="translate(169.505714 143.089728) scale(0.16 -0.16)">
       <use xlink:href="#ArialMT-30"/>
       <use xlink:href="#ArialMT-2e" transform="translate(55.615234 0)"/>
       <use xlink:href="#ArialMT-32" transform="translate(83.398438 0)"/>
       <use xlink:href="#ArialMT-35" transform="translate(139.013672 0)"/>
      </g>
     </g>
    </g>
    <g id="ytick_8">
     <g id="line2d_16">
      <g>
       <use xlink:href="#m10e7585db3" x="204.143214" y="101.206957" style="stroke: #000000; stroke-width: 0.8"/>
      </g>
     </g>
     <g id="text_17">
      <!-- 0.50 -->
      <g transform="translate(169.505714 106.933207) scale(0.16 -0.16)">
       <use xlink:href="#ArialMT-30"/>
       <use xlink:href="#ArialMT-2e" transform="translate(55.615234 0)"/>
       <use xlink:href="#ArialMT-35" transform="translate(83.398438 0)"/>
       <use xlink:href="#ArialMT-30" transform="translate(139.013672 0)"/>
      </g>
     </g>
    </g>
    <g id="ytick_9">
     <g id="line2d_17">
      <g>
       <use xlink:href="#m10e7585db3" x="204.143214" y="65.050435" style="stroke: #000000; stroke-width: 0.8"/>
      </g>
     </g>
     <g id="text_18">
      <!-- 0.75 -->
      <g transform="translate(169.505714 70.776685) scale(0.16 -0.16)">
       <use xlink:href="#ArialMT-30"/>
       <use xlink:href="#ArialMT-2e" transform="translate(55.615234 0)"/>
       <use xlink:href="#ArialMT-37" transform="translate(83.398438 0)"/>
       <use xlink:href="#ArialMT-35" transform="translate(139.013672 0)"/>
      </g>
     </g>
    </g>
    <g id="ytick_10">
     <g id="line2d_18">
      <g>
       <use xlink:href="#m10e7585db3" x="204.143214" y="28.893913" style="stroke: #000000; stroke-width: 0.8"/>
      </g>
     </g>
     <g id="text_19">
      <!-- 1.00 -->
      <g transform="translate(169.505714 34.620163) scale(0.16 -0.16)">
       <use xlink:href="#ArialMT-31"/>
       <use xlink:href="#ArialMT-2e" transform="translate(55.615234 0)"/>
       <use xlink:href="#ArialMT-30" transform="translate(83.398438 0)"/>
       <use xlink:href="#ArialMT-30" transform="translate(139.013672 0)"/>
      </g>
     </g>
    </g>
   </g>
   <g id="line2d_19">
    <path d="M 233.337277 173.52 
L 233.337277 14.431304 
" clip-path="url(#p8d1756f8f6)" style="fill: none; stroke-dasharray: 7.4,3.2; stroke-dashoffset: 0; stroke: #ff0000; stroke-width: 2"/>
   </g>
   <g id="line2d_20">
    <path d="M 208.491266 150.511202 
L 210.975867 150.510216 
L 213.460468 150.50862 
L 215.94507 150.506557 
L 218.429671 150.504218 
L 220.914272 150.501817 
L 223.398873 150.499572 
L 225.883474 150.497671 
L 228.368075 150.496258 
L 230.852676 150.495418 
L 233.337277 150.495165 
L 235.821878 150.495445 
L 238.30648 150.496148 
L 240.791081 150.497119 
L 243.275682 150.498187 
L 245.760283 150.499183 
L 248.244884 150.499963 
L 250.729485 150.500431 
L 253.214086 150.500546 
L 255.698687 150.50033 
L 258.183288 150.499863 
L 260.66789 150.499269 
L 263.152491 150.498703 
L 265.637092 150.498324 
L 268.121693 150.498275 
L 270.606294 150.49866 
L 273.090895 150.499526 
L 275.575496 150.50086 
L 278.060097 150.50258 
L 280.544699 150.504548 
L 283.0293 150.506583 
L 285.513901 150.50848 
L 287.998502 150.510039 
L 290.483103 150.511087 
L 292.967704 150.511495 
L 295.452305 150.511202 
" clip-path="url(#p8d1756f8f6)" style="fill: none; stroke: #0000ff; stroke-width: 2; stroke-linecap: square"/>
   </g>
   <g id="patch_44">
    <path d="M 204.143214 173.52 
L 204.143214 7.2 
" style="fill: none; stroke: #000000; stroke-width: 0.8; stroke-linejoin: miter; stroke-linecap: square"/>
   </g>
   <g id="patch_45">
    <path d="M 299.800357 173.52 
L 299.800357 7.2 
" style="fill: none; stroke: #000000; stroke-width: 0.8; stroke-linejoin: miter; stroke-linecap: square"/>
   </g>
   <g id="patch_46">
    <path d="M 204.143214 173.52 
L 299.800357 173.52 
" style="fill: none; stroke: #000000; stroke-width: 0.8; stroke-linejoin: miter; stroke-linecap: square"/>
   </g>
   <g id="patch_47">
    <path d="M 204.143214 7.2 
L 299.800357 7.2 
" style="fill: none; stroke: #000000; stroke-width: 0.8; stroke-linejoin: miter; stroke-linecap: square"/>
   </g>
  </g>
  <g id="axes_3">
   <g id="patch_48">
    <path d="M 347.628929 173.52 
L 443.286071 173.52 
L 443.286071 7.2 
L 347.628929 7.2 
z
" style="fill: #ffffff"/>
   </g>
   <g id="patch_49">
    <path d="M 351.976981 173.52 
L 356.808149 173.52 
L 356.808149 150.502043 
L 351.976981 150.502043 
z
" clip-path="url(#p37c75d65d0)" style="fill: #f5f5f5; stroke: #000000; stroke-linejoin: miter"/>
   </g>
   <g id="patch_50">
    <path d="M 356.808149 173.52 
L 361.639318 173.52 
L 361.639318 150.640151 
L 356.808149 150.640151 
z
" clip-path="url(#p37c75d65d0)" style="fill: #f5f5f5; stroke: #000000; stroke-linejoin: miter"/>
   </g>
   <g id="patch_51">
    <path d="M 361.639318 173.52 
L 366.470487 173.52 
L 366.470487 150.778259 
L 361.639318 150.778259 
z
" clip-path="url(#p37c75d65d0)" style="fill: #f5f5f5; stroke: #000000; stroke-linejoin: miter"/>
   </g>
   <g id="patch_52">
    <path d="M 366.470487 173.52 
L 371.301656 173.52 
L 371.301656 150.409972 
L 366.470487 150.409972 
z
" clip-path="url(#p37c75d65d0)" style="fill: #f5f5f5; stroke: #000000; stroke-linejoin: miter"/>
   </g>
   <g id="patch_53">
    <path d="M 371.301656 173.52 
L 376.132825 173.52 
L 376.132825 150.548079 
L 371.301656 150.548079 
z
" clip-path="url(#p37c75d65d0)" style="fill: #f5f5f5; stroke: #000000; stroke-linejoin: miter"/>
   </g>
   <g id="patch_54">
    <path d="M 376.132825 173.52 
L 380.963994 173.52 
L 380.963994 150.456007 
L 376.132825 150.456007 
z
" clip-path="url(#p37c75d65d0)" style="fill: #f5f5f5; stroke: #000000; stroke-linejoin: miter"/>
   </g>
   <g id="patch_55">
    <path d="M 380.963994 173.52 
L 385.795162 173.52 
L 385.795162 150.456007 
L 380.963994 150.456007 
z
" clip-path="url(#p37c75d65d0)" style="fill: #f5f5f5; stroke: #000000; stroke-linejoin: miter"/>
   </g>
   <g id="patch_56">
    <path d="M 385.795162 173.52 
L 390.626331 173.52 
L 390.626331 150.409972 
L 385.795162 150.409972 
z
" clip-path="url(#p37c75d65d0)" style="fill: #f5f5f5; stroke: #000000; stroke-linejoin: miter"/>
   </g>
   <g id="patch_57">
    <path d="M 390.626331 173.52 
L 395.4575 173.52 
L 395.4575 150.594115 
L 390.626331 150.594115 
z
" clip-path="url(#p37c75d65d0)" style="fill: #f5f5f5; stroke: #000000; stroke-linejoin: miter"/>
   </g>
   <g id="patch_58">
    <path d="M 395.4575 173.52 
L 400.288669 173.52 
L 400.288669 150.3179 
L 395.4575 150.3179 
z
" clip-path="url(#p37c75d65d0)" style="fill: #f5f5f5; stroke: #000000; stroke-linejoin: miter"/>
   </g>
   <g id="patch_59">
    <path d="M 400.288669 173.52 
L 405.119838 173.52 
L 405.119838 150.3179 
L 400.288669 150.3179 
z
" clip-path="url(#p37c75d65d0)" style="fill: #f5f5f5; stroke: #000000; stroke-linejoin: miter"/>
   </g>
   <g id="patch_60">
    <path d="M 405.119838 173.52 
L 409.951006 173.52 
L 409.951006 150.640151 
L 405.119838 150.640151 
z
" clip-path="url(#p37c75d65d0)" style="fill: #f5f5f5; stroke: #000000; stroke-linejoin: miter"/>
   </g>
   <g id="patch_61">
    <path d="M 409.951006 173.52 
L 414.782175 173.52 
L 414.782175 150.3179 
L 409.951006 150.3179 
z
" clip-path="url(#p37c75d65d0)" style="fill: #f5f5f5; stroke: #000000; stroke-linejoin: miter"/>
   </g>
   <g id="patch_62">
    <path d="M 414.782175 173.52 
L 419.613344 173.52 
L 419.613344 150.271864 
L 414.782175 150.271864 
z
" clip-path="url(#p37c75d65d0)" style="fill: #f5f5f5; stroke: #000000; stroke-linejoin: miter"/>
   </g>
   <g id="patch_63">
    <path d="M 419.613344 173.52 
L 424.444513 173.52 
L 424.444513 150.409972 
L 419.613344 150.409972 
z
" clip-path="url(#p37c75d65d0)" style="fill: #f5f5f5; stroke: #000000; stroke-linejoin: miter"/>
   </g>
   <g id="patch_64">
    <path d="M 424.444513 173.52 
L 429.275682 173.52 
L 429.275682 150.409972 
L 424.444513 150.409972 
z
" clip-path="url(#p37c75d65d0)" style="fill: #f5f5f5; stroke: #000000; stroke-linejoin: miter"/>
   </g>
   <g id="patch_65">
    <path d="M 429.275682 173.52 
L 434.106851 173.52 
L 434.106851 150.778259 
L 429.275682 150.778259 
z
" clip-path="url(#p37c75d65d0)" style="fill: #f5f5f5; stroke: #000000; stroke-linejoin: miter"/>
   </g>
   <g id="patch_66">
    <path d="M 434.106851 173.52 
L 438.938019 173.52 
L 438.938019 150.778259 
L 434.106851 150.778259 
z
" clip-path="url(#p37c75d65d0)" style="fill: #f5f5f5; stroke: #000000; stroke-linejoin: miter"/>
   </g>
   <g id="matplotlib.axis_5">
    <g id="xtick_7">
     <g id="line2d_21">
      <g>
       <use xlink:href="#m3751abe07e" x="351.976981" y="173.52" style="stroke: #000000; stroke-width: 0.8"/>
      </g>
     </g>
     <g id="text_20">
      <!-- $0$ -->
      <g transform="translate(347.976981 188.4725) scale(0.16 -0.16)">
       <use xlink:href="#STIXGeneral-Regular-30" transform="translate(0 0.40625)"/>
      </g>
     </g>
    </g>
    <g id="xtick_8">
     <g id="line2d_22">
      <g>
       <use xlink:href="#m3751abe07e" x="395.4575" y="173.52" style="stroke: #000000; stroke-width: 0.8"/>
      </g>
     </g>
     <g id="text_21">
      <!-- $\pi$ -->
      <g transform="translate(391.3775 188.4725) scale(0.16 -0.16)">
       <use xlink:href="#STIXGeneral-Italic-3c0" transform="translate(0 0.203125)"/>
      </g>
     </g>
    </g>
    <g id="xtick_9">
     <g id="line2d_23">
      <g>
       <use xlink:href="#m3751abe07e" x="438.938019" y="173.52" style="stroke: #000000; stroke-width: 0.8"/>
      </g>
     </g>
     <g id="text_22">
      <!-- $2 \pi$ -->
      <g transform="translate(430.858019 188.4725) scale(0.16 -0.16)">
       <use xlink:href="#STIXGeneral-Regular-32" transform="translate(0 0.40625)"/>
       <use xlink:href="#STIXGeneral-Italic-3c0" transform="translate(49.999985 0.40625)"/>
      </g>
     </g>
    </g>
    <g id="text_23">
     <!-- $\theta_{0} - \theta_{3} $ -->
     <g transform="translate(373.6175 207.105) scale(0.16 -0.16)">
      <defs>
       <path id="STIXGeneral-Regular-33" d="M 390 3264 
L 288 3290 
Q 435 3770 748 4048 
Q 1062 4326 1542 4326 
Q 1990 4326 2265 4083 
Q 2541 3840 2541 3450 
Q 2541 2925 1946 2566 
Q 2298 2413 2477 2227 
Q 2758 1914 2758 1402 
Q 2758 890 2464 506 
Q 2246 211 1840 60 
Q 1434 -90 979 -90 
Q 262 -90 262 275 
Q 262 378 339 442 
Q 416 506 525 506 
Q 685 506 915 339 
Q 1197 141 1466 141 
Q 1818 141 2058 425 
Q 2298 710 2298 1120 
Q 2298 1856 1632 2048 
Q 1434 2112 979 2112 
L 979 2202 
Q 1338 2323 1517 2432 
Q 2035 2726 2035 3290 
Q 2035 3610 1852 3776 
Q 1670 3942 1344 3942 
Q 768 3942 390 3264 
z
" transform="scale(0.015625)"/>
      </defs>
      <use xlink:href="#STIXGeneral-Italic-3b8" transform="translate(0 0.203125)"/>
      <use xlink:href="#STIXGeneral-Regular-30" transform="translate(47.999985 -13.025) scale(0.7)"/>
      <use xlink:href="#STIXGeneral-Regular-2212" transform="translate(101.849345 0.203125)"/>
      <use xlink:href="#STIXGeneral-Italic-3b8" transform="translate(184.789326 0.203125)"/>
      <use xlink:href="#STIXGeneral-Regular-33" transform="translate(232.789311 -13.025) scale(0.7)"/>
     </g>
    </g>
   </g>
   <g id="matplotlib.axis_6">
    <g id="ytick_11">
     <g id="line2d_24">
      <g>
       <use xlink:href="#m10e7585db3" x="347.628929" y="173.52" style="stroke: #000000; stroke-width: 0.8"/>
      </g>
     </g>
     <g id="text_24">
      <!-- 0.00 -->
      <g transform="translate(312.991429 179.24625) scale(0.16 -0.16)">
       <use xlink:href="#ArialMT-30"/>
       <use xlink:href="#ArialMT-2e" transform="translate(55.615234 0)"/>
       <use xlink:href="#ArialMT-30" transform="translate(83.398438 0)"/>
       <use xlink:href="#ArialMT-30" transform="translate(139.013672 0)"/>
      </g>
     </g>
    </g>
    <g id="ytick_12">
     <g id="line2d_25">
      <g>
       <use xlink:href="#m10e7585db3" x="347.628929" y="137.363478" style="stroke: #000000; stroke-width: 0.8"/>
      </g>
     </g>
     <g id="text_25">
      <!-- 0.25 -->
      <g transform="translate(312.991429 143.089728) scale(0.16 -0.16)">
       <use xlink:href="#ArialMT-30"/>
       <use xlink:href="#ArialMT-2e" transform="translate(55.615234 0)"/>
       <use xlink:href="#ArialMT-32" transform="translate(83.398438 0)"/>
       <use xlink:href="#ArialMT-35" transform="translate(139.013672 0)"/>
      </g>
     </g>
    </g>
    <g id="ytick_13">
     <g id="line2d_26">
      <g>
       <use xlink:href="#m10e7585db3" x="347.628929" y="101.206957" style="stroke: #000000; stroke-width: 0.8"/>
      </g>
     </g>
     <g id="text_26">
      <!-- 0.50 -->
      <g transform="translate(312.991429 106.933207) scale(0.16 -0.16)">
       <use xlink:href="#ArialMT-30"/>
       <use xlink:href="#ArialMT-2e" transform="translate(55.615234 0)"/>
       <use xlink:href="#ArialMT-35" transform="translate(83.398438 0)"/>
       <use xlink:href="#ArialMT-30" transform="translate(139.013672 0)"/>
      </g>
     </g>
    </g>
    <g id="ytick_14">
     <g id="line2d_27">
      <g>
       <use xlink:href="#m10e7585db3" x="347.628929" y="65.050435" style="stroke: #000000; stroke-width: 0.8"/>
      </g>
     </g>
     <g id="text_27">
      <!-- 0.75 -->
      <g transform="translate(312.991429 70.776685) scale(0.16 -0.16)">
       <use xlink:href="#ArialMT-30"/>
       <use xlink:href="#ArialMT-2e" transform="translate(55.615234 0)"/>
       <use xlink:href="#ArialMT-37" transform="translate(83.398438 0)"/>
       <use xlink:href="#ArialMT-35" transform="translate(139.013672 0)"/>
      </g>
     </g>
    </g>
    <g id="ytick_15">
     <g id="line2d_28">
      <g>
       <use xlink:href="#m10e7585db3" x="347.628929" y="28.893913" style="stroke: #000000; stroke-width: 0.8"/>
      </g>
     </g>
     <g id="text_28">
      <!-- 1.00 -->
      <g transform="translate(312.991429 34.620163) scale(0.16 -0.16)">
       <use xlink:href="#ArialMT-31"/>
       <use xlink:href="#ArialMT-2e" transform="translate(55.615234 0)"/>
       <use xlink:href="#ArialMT-30" transform="translate(83.398438 0)"/>
       <use xlink:href="#ArialMT-30" transform="translate(139.013672 0)"/>
      </g>
     </g>
    </g>
   </g>
   <g id="line2d_29">
    <path d="M 379.307593 173.52 
L 379.307593 14.431304 
" clip-path="url(#p37c75d65d0)" style="fill: none; stroke-dasharray: 7.4,3.2; stroke-dashoffset: 0; stroke: #ff0000; stroke-width: 2"/>
   </g>
   <g id="line2d_30">
    <path d="M 351.976981 150.509041 
L 354.461582 150.50783 
L 356.946183 150.506355 
L 359.430784 150.504734 
L 361.915385 150.503091 
L 364.399986 150.50154 
L 366.884587 150.500176 
L 369.369188 150.499067 
L 371.853789 150.498244 
L 374.338391 150.497707 
L 376.822992 150.497423 
L 379.307593 150.497335 
L 381.792194 150.497375 
L 384.276795 150.497471 
L 386.761396 150.497562 
L 389.245997 150.497604 
L 391.730598 150.49758 
L 394.215199 150.497501 
L 396.699801 150.497402 
L 399.184402 150.497341 
L 401.669003 150.497388 
L 404.153604 150.497614 
L 406.638205 150.498079 
L 409.122806 150.498823 
L 411.607407 150.499857 
L 414.092008 150.501157 
L 416.576609 150.502666 
L 419.061211 150.504295 
L 421.545812 150.505933 
L 424.030413 150.507459 
L 426.515014 150.508751 
L 428.999615 150.509702 
L 431.484216 150.510232 
L 433.968817 150.510296 
L 436.453418 150.509887 
L 438.938019 150.509041 
" clip-path="url(#p37c75d65d0)" style="fill: none; stroke: #0000ff; stroke-width: 2; stroke-linecap: square"/>
   </g>
   <g id="patch_67">
    <path d="M 347.628929 173.52 
L 347.628929 7.2 
" style="fill: none; stroke: #000000; stroke-width: 0.8; stroke-linejoin: miter; stroke-linecap: square"/>
   </g>
   <g id="patch_68">
    <path d="M 443.286071 173.52 
L 443.286071 7.2 
" style="fill: none; stroke: #000000; stroke-width: 0.8; stroke-linejoin: miter; stroke-linecap: square"/>
   </g>
   <g id="patch_69">
    <path d="M 347.628929 173.52 
L 443.286071 173.52 
" style="fill: none; stroke: #000000; stroke-width: 0.8; stroke-linejoin: miter; stroke-linecap: square"/>
   </g>
   <g id="patch_70">
    <path d="M 347.628929 7.2 
L 443.286071 7.2 
" style="fill: none; stroke: #000000; stroke-width: 0.8; stroke-linejoin: miter; stroke-linecap: square"/>
   </g>
  </g>
  <g id="axes_4">
   <g id="patch_71">
    <path d="M 491.114643 173.52 
L 586.771786 173.52 
L 586.771786 7.2 
L 491.114643 7.2 
z
" style="fill: #ffffff"/>
   </g>
   <g id="patch_72">
    <path d="M 495.462695 173.52 
L 500.293864 173.52 
L 500.293864 153.954737 
L 495.462695 153.954737 
z
" clip-path="url(#pc7f505720a)" style="fill: #f5f5f5; stroke: #000000; stroke-linejoin: miter"/>
   </g>
   <g id="patch_73">
    <path d="M 500.293864 173.52 
L 505.125032 173.52 
L 505.125032 156.486712 
L 500.293864 156.486712 
z
" clip-path="url(#pc7f505720a)" style="fill: #f5f5f5; stroke: #000000; stroke-linejoin: miter"/>
   </g>
   <g id="patch_74">
    <path d="M 505.125032 173.52 
L 509.956201 173.52 
L 509.956201 157.453466 
L 505.125032 157.453466 
z
" clip-path="url(#pc7f505720a)" style="fill: #f5f5f5; stroke: #000000; stroke-linejoin: miter"/>
   </g>
   <g id="patch_75">
    <path d="M 509.956201 173.52 
L 514.78737 173.52 
L 514.78737 157.361394 
L 509.956201 157.361394 
z
" clip-path="url(#pc7f505720a)" style="fill: #f5f5f5; stroke: #000000; stroke-linejoin: miter"/>
   </g>
   <g id="patch_76">
    <path d="M 514.78737 173.52 
L 519.618539 173.52 
L 519.618539 155.750137 
L 514.78737 155.750137 
z
" clip-path="url(#pc7f505720a)" style="fill: #f5f5f5; stroke: #000000; stroke-linejoin: miter"/>
   </g>
   <g id="patch_77">
    <path d="M 519.618539 173.52 
L 524.449708 173.52 
L 524.449708 154.184916 
L 519.618539 154.184916 
z
" clip-path="url(#pc7f505720a)" style="fill: #f5f5f5; stroke: #000000; stroke-linejoin: miter"/>
   </g>
   <g id="patch_78">
    <path d="M 524.449708 173.52 
L 529.280877 173.52 
L 529.280877 152.34348 
L 524.449708 152.34348 
z
" clip-path="url(#pc7f505720a)" style="fill: #f5f5f5; stroke: #000000; stroke-linejoin: miter"/>
   </g>
   <g id="patch_79">
    <path d="M 529.280877 173.52 
L 534.112045 173.52 
L 534.112045 150.778259 
L 529.280877 150.778259 
z
" clip-path="url(#pc7f505720a)" style="fill: #f5f5f5; stroke: #000000; stroke-linejoin: miter"/>
   </g>
   <g id="patch_80">
    <path d="M 534.112045 173.52 
L 538.943214 173.52 
L 538.943214 150.548079 
L 534.112045 150.548079 
z
" clip-path="url(#pc7f505720a)" style="fill: #f5f5f5; stroke: #000000; stroke-linejoin: miter"/>
   </g>
   <g id="patch_81">
    <path d="M 538.943214 173.52 
L 543.774383 173.52 
L 543.774383 150.962402 
L 538.943214 150.962402 
z
" clip-path="url(#pc7f505720a)" style="fill: #f5f5f5; stroke: #000000; stroke-linejoin: miter"/>
   </g>
   <g id="patch_82">
    <path d="M 543.774383 173.52 
L 548.605552 173.52 
L 548.605552 151.054474 
L 543.774383 151.054474 
z
" clip-path="url(#pc7f505720a)" style="fill: #f5f5f5; stroke: #000000; stroke-linejoin: miter"/>
   </g>
   <g id="patch_83">
    <path d="M 548.605552 173.52 
L 553.436721 173.52 
L 553.436721 150.041684 
L 548.605552 150.041684 
z
" clip-path="url(#pc7f505720a)" style="fill: #f5f5f5; stroke: #000000; stroke-linejoin: miter"/>
   </g>
   <g id="patch_84">
    <path d="M 553.436721 173.52 
L 558.26789 173.52 
L 558.26789 147.417637 
L 553.436721 147.417637 
z
" clip-path="url(#pc7f505720a)" style="fill: #f5f5f5; stroke: #000000; stroke-linejoin: miter"/>
   </g>
   <g id="patch_85">
    <path d="M 558.26789 173.52 
L 563.099058 173.52 
L 563.099058 144.195123 
L 558.26789 144.195123 
z
" clip-path="url(#pc7f505720a)" style="fill: #f5f5f5; stroke: #000000; stroke-linejoin: miter"/>
   </g>
   <g id="patch_86">
    <path d="M 563.099058 173.52 
L 567.930227 173.52 
L 567.930227 141.202789 
L 563.099058 141.202789 
z
" clip-path="url(#pc7f505720a)" style="fill: #f5f5f5; stroke: #000000; stroke-linejoin: miter"/>
   </g>
   <g id="patch_87">
    <path d="M 567.930227 173.52 
L 572.761396 173.52 
L 572.761396 141.432968 
L 567.930227 141.432968 
z
" clip-path="url(#pc7f505720a)" style="fill: #f5f5f5; stroke: #000000; stroke-linejoin: miter"/>
   </g>
   <g id="patch_88">
    <path d="M 572.761396 173.52 
L 577.592565 173.52 
L 577.592565 143.964944 
L 572.761396 143.964944 
z
" clip-path="url(#pc7f505720a)" style="fill: #f5f5f5; stroke: #000000; stroke-linejoin: miter"/>
   </g>
   <g id="patch_89">
    <path d="M 577.592565 173.52 
L 582.423734 173.52 
L 582.423734 149.903576 
L 577.592565 149.903576 
z
" clip-path="url(#pc7f505720a)" style="fill: #f5f5f5; stroke: #000000; stroke-linejoin: miter"/>
   </g>
   <g id="matplotlib.axis_7">
    <g id="xtick_10">
     <g id="line2d_31">
      <g>
       <use xlink:href="#m3751abe07e" x="495.462695" y="173.52" style="stroke: #000000; stroke-width: 0.8"/>
      </g>
     </g>
     <g id="text_29">
      <!-- $0$ -->
      <g transform="translate(491.462695 188.4725) scale(0.16 -0.16)">
       <use xlink:href="#STIXGeneral-Regular-30" transform="translate(0 0.40625)"/>
      </g>
     </g>
    </g>
    <g id="xtick_11">
     <g id="line2d_32">
      <g>
       <use xlink:href="#m3751abe07e" x="538.943214" y="173.52" style="stroke: #000000; stroke-width: 0.8"/>
      </g>
     </g>
     <g id="text_30">
      <!-- $\pi$ -->
      <g transform="translate(534.863214 188.4725) scale(0.16 -0.16)">
       <use xlink:href="#STIXGeneral-Italic-3c0" transform="translate(0 0.203125)"/>
      </g>
     </g>
    </g>
    <g id="xtick_12">
     <g id="line2d_33">
      <g>
       <use xlink:href="#m3751abe07e" x="582.423734" y="173.52" style="stroke: #000000; stroke-width: 0.8"/>
      </g>
     </g>
     <g id="text_31">
      <!-- $2 \pi$ -->
      <g transform="translate(574.343734 188.4725) scale(0.16 -0.16)">
       <use xlink:href="#STIXGeneral-Regular-32" transform="translate(0 0.40625)"/>
       <use xlink:href="#STIXGeneral-Italic-3c0" transform="translate(49.999985 0.40625)"/>
      </g>
     </g>
    </g>
    <g id="text_32">
     <!-- $\theta_{1} - \theta_{2} $ -->
     <g transform="translate(517.103214 207.105) scale(0.16 -0.16)">
      <use xlink:href="#STIXGeneral-Italic-3b8" transform="translate(0 0.203125)"/>
      <use xlink:href="#STIXGeneral-Regular-31" transform="translate(47.999985 -13.025) scale(0.7)"/>
      <use xlink:href="#STIXGeneral-Regular-2212" transform="translate(101.849345 0.203125)"/>
      <use xlink:href="#STIXGeneral-Italic-3b8" transform="translate(184.789326 0.203125)"/>
      <use xlink:href="#STIXGeneral-Regular-32" transform="translate(232.789311 -13.025) scale(0.7)"/>
     </g>
    </g>
   </g>
   <g id="matplotlib.axis_8">
    <g id="ytick_16">
     <g id="line2d_34">
      <g>
       <use xlink:href="#m10e7585db3" x="491.114643" y="173.52" style="stroke: #000000; stroke-width: 0.8"/>
      </g>
     </g>
     <g id="text_33">
      <!-- 0.00 -->
      <g transform="translate(456.477143 179.24625) scale(0.16 -0.16)">
       <use xlink:href="#ArialMT-30"/>
       <use xlink:href="#ArialMT-2e" transform="translate(55.615234 0)"/>
       <use xlink:href="#ArialMT-30" transform="translate(83.398438 0)"/>
       <use xlink:href="#ArialMT-30" transform="translate(139.013672 0)"/>
      </g>
     </g>
    </g>
    <g id="ytick_17">
     <g id="line2d_35">
      <g>
       <use xlink:href="#m10e7585db3" x="491.114643" y="137.363478" style="stroke: #000000; stroke-width: 0.8"/>
      </g>
     </g>
     <g id="text_34">
      <!-- 0.25 -->
      <g transform="translate(456.477143 143.089728) scale(0.16 -0.16)">
       <use xlink:href="#ArialMT-30"/>
       <use xlink:href="#ArialMT-2e" transform="translate(55.615234 0)"/>
       <use xlink:href="#ArialMT-32" transform="translate(83.398438 0)"/>
       <use xlink:href="#ArialMT-35" transform="translate(139.013672 0)"/>
      </g>
     </g>
    </g>
    <g id="ytick_18">
     <g id="line2d_36">
      <g>
       <use xlink:href="#m10e7585db3" x="491.114643" y="101.206957" style="stroke: #000000; stroke-width: 0.8"/>
      </g>
     </g>
     <g id="text_35">
      <!-- 0.50 -->
      <g transform="translate(456.477143 106.933207) scale(0.16 -0.16)">
       <use xlink:href="#ArialMT-30"/>
       <use xlink:href="#ArialMT-2e" transform="translate(55.615234 0)"/>
       <use xlink:href="#ArialMT-35" transform="translate(83.398438 0)"/>
       <use xlink:href="#ArialMT-30" transform="translate(139.013672 0)"/>
      </g>
     </g>
    </g>
    <g id="ytick_19">
     <g id="line2d_37">
      <g>
       <use xlink:href="#m10e7585db3" x="491.114643" y="65.050435" style="stroke: #000000; stroke-width: 0.8"/>
      </g>
     </g>
     <g id="text_36">
      <!-- 0.75 -->
      <g transform="translate(456.477143 70.776685) scale(0.16 -0.16)">
       <use xlink:href="#ArialMT-30"/>
       <use xlink:href="#ArialMT-2e" transform="translate(55.615234 0)"/>
       <use xlink:href="#ArialMT-37" transform="translate(83.398438 0)"/>
       <use xlink:href="#ArialMT-35" transform="translate(139.013672 0)"/>
      </g>
     </g>
    </g>
    <g id="ytick_20">
     <g id="line2d_38">
      <g>
       <use xlink:href="#m10e7585db3" x="491.114643" y="28.893913" style="stroke: #000000; stroke-width: 0.8"/>
      </g>
     </g>
     <g id="text_37">
      <!-- 1.00 -->
      <g transform="translate(456.477143 34.620163) scale(0.16 -0.16)">
       <use xlink:href="#ArialMT-31"/>
       <use xlink:href="#ArialMT-2e" transform="translate(55.615234 0)"/>
       <use xlink:href="#ArialMT-30" transform="translate(83.398438 0)"/>
       <use xlink:href="#ArialMT-30" transform="translate(139.013672 0)"/>
      </g>
     </g>
    </g>
   </g>
   <g id="line2d_39">
    <path d="M 570.000728 173.52 
L 570.000728 14.431304 
" clip-path="url(#pc7f505720a)" style="fill: none; stroke-dasharray: 7.4,3.2; stroke-dashoffset: 0; stroke: #ff0000; stroke-width: 2"/>
   </g>
   <g id="line2d_40">
    <path d="M 495.462695 151.16457 
L 497.947296 153.33178 
L 500.431897 154.999513 
L 502.916498 156.199164 
L 505.401099 156.98408 
L 507.8857 157.404326 
L 510.370301 157.49994 
L 512.854903 157.302017 
L 515.339504 156.83747 
L 517.824105 156.136117 
L 520.308706 155.239423 
L 522.793307 154.209426 
L 525.277908 153.134357 
L 527.762509 152.125334 
L 530.24711 151.2988 
L 532.731712 150.745497 
L 535.216313 150.497695 
L 537.700914 150.513458 
L 540.185515 150.689177 
L 542.670116 150.892614 
L 545.154717 150.996291 
L 547.639318 150.896504 
L 550.123919 150.517465 
L 552.60852 149.808861 
L 555.093122 148.745643 
L 557.577723 147.336129 
L 560.062324 145.641572 
L 562.546925 143.805787 
L 565.031526 142.083093 
L 567.516127 140.835525 
L 570.000728 140.458552 
L 572.485329 141.221409 
L 574.96993 143.094594 
L 577.454532 145.713176 
L 579.939133 148.549632 
L 582.423734 151.16457 
" clip-path="url(#pc7f505720a)" style="fill: none; stroke: #0000ff; stroke-width: 2; stroke-linecap: square"/>
   </g>
   <g id="patch_90">
    <path d="M 491.114643 173.52 
L 491.114643 7.2 
" style="fill: none; stroke: #000000; stroke-width: 0.8; stroke-linejoin: miter; stroke-linecap: square"/>
   </g>
   <g id="patch_91">
    <path d="M 586.771786 173.52 
L 586.771786 7.2 
" style="fill: none; stroke: #000000; stroke-width: 0.8; stroke-linejoin: miter; stroke-linecap: square"/>
   </g>
   <g id="patch_92">
    <path d="M 491.114643 173.52 
L 586.771786 173.52 
" style="fill: none; stroke: #000000; stroke-width: 0.8; stroke-linejoin: miter; stroke-linecap: square"/>
   </g>
   <g id="patch_93">
    <path d="M 491.114643 7.2 
L 586.771786 7.2 
" style="fill: none; stroke: #000000; stroke-width: 0.8; stroke-linejoin: miter; stroke-linecap: square"/>
   </g>
  </g>
  <g id="axes_5">
   <g id="patch_94">
    <path d="M 634.600357 173.52 
L 730.2575 173.52 
L 730.2575 7.2 
L 634.600357 7.2 
z
" style="fill: #ffffff"/>
   </g>
   <g id="patch_95">
    <path d="M 638.948409 173.52 
L 643.779578 173.52 
L 643.779578 153.172126 
L 638.948409 153.172126 
z
" clip-path="url(#p7a8a37b1be)" style="fill: #f5f5f5; stroke: #000000; stroke-linejoin: miter"/>
   </g>
   <g id="patch_96">
    <path d="M 643.779578 173.52 
L 648.610747 173.52 
L 648.610747 154.691311 
L 643.779578 154.691311 
z
" clip-path="url(#p7a8a37b1be)" style="fill: #f5f5f5; stroke: #000000; stroke-linejoin: miter"/>
   </g>
   <g id="patch_97">
    <path d="M 648.610747 173.52 
L 653.441916 173.52 
L 653.441916 155.197707 
L 648.610747 155.197707 
z
" clip-path="url(#p7a8a37b1be)" style="fill: #f5f5f5; stroke: #000000; stroke-linejoin: miter"/>
   </g>
   <g id="patch_98">
    <path d="M 653.441916 173.52 
L 658.273084 173.52 
L 658.273084 154.59924 
L 653.441916 154.59924 
z
" clip-path="url(#p7a8a37b1be)" style="fill: #f5f5f5; stroke: #000000; stroke-linejoin: miter"/>
   </g>
   <g id="patch_99">
    <path d="M 658.273084 173.52 
L 663.104253 173.52 
L 663.104253 153.540414 
L 658.273084 153.540414 
z
" clip-path="url(#p7a8a37b1be)" style="fill: #f5f5f5; stroke: #000000; stroke-linejoin: miter"/>
   </g>
   <g id="patch_100">
    <path d="M 663.104253 173.52 
L 667.935422 173.52 
L 667.935422 152.1133 
L 663.104253 152.1133 
z
" clip-path="url(#p7a8a37b1be)" style="fill: #f5f5f5; stroke: #000000; stroke-linejoin: miter"/>
   </g>
   <g id="patch_101">
    <path d="M 667.935422 173.52 
L 672.766591 173.52 
L 672.766591 150.594115 
L 667.935422 150.594115 
z
" clip-path="url(#p7a8a37b1be)" style="fill: #f5f5f5; stroke: #000000; stroke-linejoin: miter"/>
   </g>
   <g id="patch_102">
    <path d="M 672.766591 173.52 
L 677.59776 173.52 
L 677.59776 149.811505 
L 672.766591 149.811505 
z
" clip-path="url(#p7a8a37b1be)" style="fill: #f5f5f5; stroke: #000000; stroke-linejoin: miter"/>
   </g>
   <g id="patch_103">
    <path d="M 677.59776 173.52 
L 682.428929 173.52 
L 682.428929 149.719433 
L 677.59776 149.719433 
z
" clip-path="url(#p7a8a37b1be)" style="fill: #f5f5f5; stroke: #000000; stroke-linejoin: miter"/>
   </g>
   <g id="patch_104">
    <path d="M 682.428929 173.52 
L 687.260097 173.52 
L 687.260097 149.995648 
L 682.428929 149.995648 
z
" clip-path="url(#p7a8a37b1be)" style="fill: #f5f5f5; stroke: #000000; stroke-linejoin: miter"/>
   </g>
   <g id="patch_105">
    <path d="M 687.260097 173.52 
L 692.091266 173.52 
L 692.091266 149.903576 
L 687.260097 149.903576 
z
" clip-path="url(#p7a8a37b1be)" style="fill: #f5f5f5; stroke: #000000; stroke-linejoin: miter"/>
   </g>
   <g id="patch_106">
    <path d="M 692.091266 173.52 
L 696.922435 173.52 
L 696.922435 149.535289 
L 692.091266 149.535289 
z
" clip-path="url(#p7a8a37b1be)" style="fill: #f5f5f5; stroke: #000000; stroke-linejoin: miter"/>
   </g>
   <g id="patch_107">
    <path d="M 696.922435 173.52 
L 701.753604 173.52 
L 701.753604 148.29232 
L 696.922435 148.29232 
z
" clip-path="url(#p7a8a37b1be)" style="fill: #f5f5f5; stroke: #000000; stroke-linejoin: miter"/>
   </g>
   <g id="patch_108">
    <path d="M 701.753604 173.52 
L 706.584773 173.52 
L 706.584773 146.542955 
L 701.753604 146.542955 
z
" clip-path="url(#p7a8a37b1be)" style="fill: #f5f5f5; stroke: #000000; stroke-linejoin: miter"/>
   </g>
   <g id="patch_109">
    <path d="M 706.584773 173.52 
L 711.415942 173.52 
L 711.415942 145.530165 
L 706.584773 145.530165 
z
" clip-path="url(#p7a8a37b1be)" style="fill: #f5f5f5; stroke: #000000; stroke-linejoin: miter"/>
   </g>
   <g id="patch_110">
    <path d="M 711.415942 173.52 
L 716.24711 173.52 
L 716.24711 146.911242 
L 711.415942 146.911242 
z
" clip-path="url(#p7a8a37b1be)" style="fill: #f5f5f5; stroke: #000000; stroke-linejoin: miter"/>
   </g>
   <g id="patch_111">
    <path d="M 716.24711 173.52 
L 721.078279 173.52 
L 721.078279 148.246284 
L 716.24711 148.246284 
z
" clip-path="url(#p7a8a37b1be)" style="fill: #f5f5f5; stroke: #000000; stroke-linejoin: miter"/>
   </g>
   <g id="patch_112">
    <path d="M 721.078279 173.52 
L 725.909448 173.52 
L 725.909448 150.640151 
L 721.078279 150.640151 
z
" clip-path="url(#p7a8a37b1be)" style="fill: #f5f5f5; stroke: #000000; stroke-linejoin: miter"/>
   </g>
   <g id="matplotlib.axis_9">
    <g id="xtick_13">
     <g id="line2d_41">
      <g>
       <use xlink:href="#m3751abe07e" x="638.948409" y="173.52" style="stroke: #000000; stroke-width: 0.8"/>
      </g>
     </g>
     <g id="text_38">
      <!-- $0$ -->
      <g transform="translate(634.948409 188.4725) scale(0.16 -0.16)">
       <use xlink:href="#STIXGeneral-Regular-30" transform="translate(0 0.40625)"/>
      </g>
     </g>
    </g>
    <g id="xtick_14">
     <g id="line2d_42">
      <g>
       <use xlink:href="#m3751abe07e" x="682.428929" y="173.52" style="stroke: #000000; stroke-width: 0.8"/>
      </g>
     </g>
     <g id="text_39">
      <!-- $\pi$ -->
      <g transform="translate(678.348929 188.4725) scale(0.16 -0.16)">
       <use xlink:href="#STIXGeneral-Italic-3c0" transform="translate(0 0.203125)"/>
      </g>
     </g>
    </g>
    <g id="xtick_15">
     <g id="line2d_43">
      <g>
       <use xlink:href="#m3751abe07e" x="725.909448" y="173.52" style="stroke: #000000; stroke-width: 0.8"/>
      </g>
     </g>
     <g id="text_40">
      <!-- $2 \pi$ -->
      <g transform="translate(717.829448 188.4725) scale(0.16 -0.16)">
       <use xlink:href="#STIXGeneral-Regular-32" transform="translate(0 0.40625)"/>
       <use xlink:href="#STIXGeneral-Italic-3c0" transform="translate(49.999985 0.40625)"/>
      </g>
     </g>
    </g>
    <g id="text_41">
     <!-- $\theta_{1} - \theta_{3} $ -->
     <g transform="translate(660.588929 207.105) scale(0.16 -0.16)">
      <use xlink:href="#STIXGeneral-Italic-3b8" transform="translate(0 0.203125)"/>
      <use xlink:href="#STIXGeneral-Regular-31" transform="translate(47.999985 -13.025) scale(0.7)"/>
      <use xlink:href="#STIXGeneral-Regular-2212" transform="translate(101.849345 0.203125)"/>
      <use xlink:href="#STIXGeneral-Italic-3b8" transform="translate(184.789326 0.203125)"/>
      <use xlink:href="#STIXGeneral-Regular-33" transform="translate(232.789311 -13.025) scale(0.7)"/>
     </g>
    </g>
   </g>
   <g id="matplotlib.axis_10">
    <g id="ytick_21">
     <g id="line2d_44">
      <g>
       <use xlink:href="#m10e7585db3" x="634.600357" y="173.52" style="stroke: #000000; stroke-width: 0.8"/>
      </g>
     </g>
     <g id="text_42">
      <!-- 0.00 -->
      <g transform="translate(599.962857 179.24625) scale(0.16 -0.16)">
       <use xlink:href="#ArialMT-30"/>
       <use xlink:href="#ArialMT-2e" transform="translate(55.615234 0)"/>
       <use xlink:href="#ArialMT-30" transform="translate(83.398438 0)"/>
       <use xlink:href="#ArialMT-30" transform="translate(139.013672 0)"/>
      </g>
     </g>
    </g>
    <g id="ytick_22">
     <g id="line2d_45">
      <g>
       <use xlink:href="#m10e7585db3" x="634.600357" y="137.363478" style="stroke: #000000; stroke-width: 0.8"/>
      </g>
     </g>
     <g id="text_43">
      <!-- 0.25 -->
      <g transform="translate(599.962857 143.089728) scale(0.16 -0.16)">
       <use xlink:href="#ArialMT-30"/>
       <use xlink:href="#ArialMT-2e" transform="translate(55.615234 0)"/>
       <use xlink:href="#ArialMT-32" transform="translate(83.398438 0)"/>
       <use xlink:href="#ArialMT-35" transform="translate(139.013672 0)"/>
      </g>
     </g>
    </g>
    <g id="ytick_23">
     <g id="line2d_46">
      <g>
       <use xlink:href="#m10e7585db3" x="634.600357" y="101.206957" style="stroke: #000000; stroke-width: 0.8"/>
      </g>
     </g>
     <g id="text_44">
      <!-- 0.50 -->
      <g transform="translate(599.962857 106.933207) scale(0.16 -0.16)">
       <use xlink:href="#ArialMT-30"/>
       <use xlink:href="#ArialMT-2e" transform="translate(55.615234 0)"/>
       <use xlink:href="#ArialMT-35" transform="translate(83.398438 0)"/>
       <use xlink:href="#ArialMT-30" transform="translate(139.013672 0)"/>
      </g>
     </g>
    </g>
    <g id="ytick_24">
     <g id="line2d_47">
      <g>
       <use xlink:href="#m10e7585db3" x="634.600357" y="65.050435" style="stroke: #000000; stroke-width: 0.8"/>
      </g>
     </g>
     <g id="text_45">
      <!-- 0.75 -->
      <g transform="translate(599.962857 70.776685) scale(0.16 -0.16)">
       <use xlink:href="#ArialMT-30"/>
       <use xlink:href="#ArialMT-2e" transform="translate(55.615234 0)"/>
       <use xlink:href="#ArialMT-37" transform="translate(83.398438 0)"/>
       <use xlink:href="#ArialMT-35" transform="translate(139.013672 0)"/>
      </g>
     </g>
    </g>
    <g id="ytick_25">
     <g id="line2d_48">
      <g>
       <use xlink:href="#m10e7585db3" x="634.600357" y="28.893913" style="stroke: #000000; stroke-width: 0.8"/>
      </g>
     </g>
     <g id="text_46">
      <!-- 1.00 -->
      <g transform="translate(599.962857 34.620163) scale(0.16 -0.16)">
       <use xlink:href="#ArialMT-31"/>
       <use xlink:href="#ArialMT-2e" transform="translate(55.615234 0)"/>
       <use xlink:href="#ArialMT-30" transform="translate(83.398438 0)"/>
       <use xlink:href="#ArialMT-30" transform="translate(139.013672 0)"/>
      </g>
     </g>
    </g>
   </g>
   <g id="line2d_49">
    <path d="M 711.001841 173.52 
L 711.001841 14.431304 
" clip-path="url(#p7a8a37b1be)" style="fill: none; stroke-dasharray: 7.4,3.2; stroke-dashoffset: 0; stroke: #ff0000; stroke-width: 2"/>
   </g>
   <g id="line2d_50">
    <path d="M 638.948409 150.921413 
L 641.43301 152.12096 
L 643.917611 153.118378 
L 646.402212 153.87954 
L 648.886814 154.394076 
L 651.371415 154.665519 
L 653.856016 154.705481 
L 656.340617 154.531505 
L 658.825218 154.167647 
L 661.309819 153.646795 
L 663.79442 153.013388 
L 666.279021 152.324719 
L 668.763622 151.648537 
L 671.248224 151.055064 
L 673.732825 150.603653 
L 676.217426 150.327826 
L 678.702027 150.225174 
L 681.186628 150.257546 
L 683.671229 150.361635 
L 686.15583 150.46458 
L 688.640431 150.497973 
L 691.125032 150.406728 
L 693.609634 150.153278 
L 696.094235 149.719631 
L 698.578836 149.109874 
L 701.063437 148.354468 
L 703.548038 147.515847 
L 706.032639 146.692229 
L 708.51724 146.013705 
L 711.001841 145.623555 
L 713.486442 145.642363 
L 715.971044 146.124829 
L 718.455645 147.032306 
L 720.940246 148.241968 
L 723.424847 149.589961 
L 725.909448 150.921413 
" clip-path="url(#p7a8a37b1be)" style="fill: none; stroke: #0000ff; stroke-width: 2; stroke-linecap: square"/>
   </g>
   <g id="patch_113">
    <path d="M 634.600357 173.52 
L 634.600357 7.2 
" style="fill: none; stroke: #000000; stroke-width: 0.8; stroke-linejoin: miter; stroke-linecap: square"/>
   </g>
   <g id="patch_114">
    <path d="M 730.2575 173.52 
L 730.2575 7.2 
" style="fill: none; stroke: #000000; stroke-width: 0.8; stroke-linejoin: miter; stroke-linecap: square"/>
   </g>
   <g id="patch_115">
    <path d="M 634.600357 173.52 
L 730.2575 173.52 
" style="fill: none; stroke: #000000; stroke-width: 0.8; stroke-linejoin: miter; stroke-linecap: square"/>
   </g>
   <g id="patch_116">
    <path d="M 634.600357 7.2 
L 730.2575 7.2 
" style="fill: none; stroke: #000000; stroke-width: 0.8; stroke-linejoin: miter; stroke-linecap: square"/>
   </g>
  </g>
  <g id="axes_6">
   <g id="patch_117">
    <path d="M 778.086071 173.52 
L 873.743214 173.52 
L 873.743214 7.2 
L 778.086071 7.2 
z
" style="fill: #ffffff"/>
   </g>
   <g id="patch_118">
    <path d="M 782.434123 173.52 
L 787.265292 173.52 
L 787.265292 154.829419 
L 782.434123 154.829419 
z
" clip-path="url(#pd9cede9f9a)" style="fill: #f5f5f5; stroke: #000000; stroke-linejoin: miter"/>
   </g>
   <g id="patch_119">
    <path d="M 787.265292 173.52 
L 792.096461 173.52 
L 792.096461 157.40743 
L 787.265292 157.40743 
z
" clip-path="url(#pd9cede9f9a)" style="fill: #f5f5f5; stroke: #000000; stroke-linejoin: miter"/>
   </g>
   <g id="patch_120">
    <path d="M 792.096461 173.52 
L 796.92763 173.52 
L 796.92763 159.248867 
L 792.096461 159.248867 
z
" clip-path="url(#pd9cede9f9a)" style="fill: #f5f5f5; stroke: #000000; stroke-linejoin: miter"/>
   </g>
   <g id="patch_121">
    <path d="M 796.92763 173.52 
L 801.758799 173.52 
L 801.758799 158.972651 
L 796.92763 158.972651 
z
" clip-path="url(#pd9cede9f9a)" style="fill: #f5f5f5; stroke: #000000; stroke-linejoin: miter"/>
   </g>
   <g id="patch_122">
    <path d="M 801.758799 173.52 
L 806.589968 173.52 
L 806.589968 155.750137 
L 801.758799 155.750137 
z
" clip-path="url(#pd9cede9f9a)" style="fill: #f5f5f5; stroke: #000000; stroke-linejoin: miter"/>
   </g>
   <g id="patch_123">
    <path d="M 806.589968 173.52 
L 811.421136 173.52 
L 811.421136 153.678521 
L 806.589968 153.678521 
z
" clip-path="url(#pd9cede9f9a)" style="fill: #f5f5f5; stroke: #000000; stroke-linejoin: miter"/>
   </g>
   <g id="patch_124">
    <path d="M 811.421136 173.52 
L 816.252305 173.52 
L 816.252305 152.987983 
L 811.421136 152.987983 
z
" clip-path="url(#pd9cede9f9a)" style="fill: #f5f5f5; stroke: #000000; stroke-linejoin: miter"/>
   </g>
   <g id="patch_125">
    <path d="M 816.252305 173.52 
L 821.083474 173.52 
L 821.083474 150.456007 
L 816.252305 150.456007 
z
" clip-path="url(#pd9cede9f9a)" style="fill: #f5f5f5; stroke: #000000; stroke-linejoin: miter"/>
   </g>
   <g id="patch_126">
    <path d="M 821.083474 173.52 
L 825.914643 173.52 
L 825.914643 148.108176 
L 821.083474 148.108176 
z
" clip-path="url(#pd9cede9f9a)" style="fill: #f5f5f5; stroke: #000000; stroke-linejoin: miter"/>
   </g>
   <g id="patch_127">
    <path d="M 825.914643 173.52 
L 830.745812 173.52 
L 830.745812 151.054474 
L 825.914643 151.054474 
z
" clip-path="url(#pd9cede9f9a)" style="fill: #f5f5f5; stroke: #000000; stroke-linejoin: miter"/>
   </g>
   <g id="patch_128">
    <path d="M 830.745812 173.52 
L 835.576981 173.52 
L 835.576981 155.289778 
L 830.745812 155.289778 
z
" clip-path="url(#pd9cede9f9a)" style="fill: #f5f5f5; stroke: #000000; stroke-linejoin: miter"/>
   </g>
   <g id="patch_129">
    <path d="M 835.576981 173.52 
L 840.408149 173.52 
L 840.408149 143.228369 
L 835.576981 143.228369 
z
" clip-path="url(#pd9cede9f9a)" style="fill: #f5f5f5; stroke: #000000; stroke-linejoin: miter"/>
   </g>
   <g id="patch_130">
    <path d="M 840.408149 173.52 
L 845.239318 173.52 
L 845.239318 152.389516 
L 840.408149 152.389516 
z
" clip-path="url(#pd9cede9f9a)" style="fill: #f5f5f5; stroke: #000000; stroke-linejoin: miter"/>
   </g>
   <g id="patch_131">
    <path d="M 845.239318 173.52 
L 850.070487 173.52 
L 850.070487 147.371601 
L 845.239318 147.371601 
z
" clip-path="url(#pd9cede9f9a)" style="fill: #f5f5f5; stroke: #000000; stroke-linejoin: miter"/>
   </g>
   <g id="patch_132">
    <path d="M 850.070487 173.52 
L 854.901656 173.52 
L 854.901656 132.96236 
L 850.070487 132.96236 
z
" clip-path="url(#pd9cede9f9a)" style="fill: #f5f5f5; stroke: #000000; stroke-linejoin: miter"/>
   </g>
   <g id="patch_133">
    <path d="M 854.901656 173.52 
L 859.732825 173.52 
L 859.732825 141.985399 
L 854.901656 141.985399 
z
" clip-path="url(#pd9cede9f9a)" style="fill: #f5f5f5; stroke: #000000; stroke-linejoin: miter"/>
   </g>
   <g id="patch_134">
    <path d="M 859.732825 173.52 
L 864.563994 173.52 
L 864.563994 141.939363 
L 859.732825 141.939363 
z
" clip-path="url(#pd9cede9f9a)" style="fill: #f5f5f5; stroke: #000000; stroke-linejoin: miter"/>
   </g>
   <g id="patch_135">
    <path d="M 864.563994 173.52 
L 869.395162 173.52 
L 869.395162 151.376726 
L 864.563994 151.376726 
z
" clip-path="url(#pd9cede9f9a)" style="fill: #f5f5f5; stroke: #000000; stroke-linejoin: miter"/>
   </g>
   <g id="matplotlib.axis_11">
    <g id="xtick_16">
     <g id="line2d_51">
      <g>
       <use xlink:href="#m3751abe07e" x="782.434123" y="173.52" style="stroke: #000000; stroke-width: 0.8"/>
      </g>
     </g>
     <g id="text_47">
      <!-- $0$ -->
      <g transform="translate(778.434123 188.4725) scale(0.16 -0.16)">
       <use xlink:href="#STIXGeneral-Regular-30" transform="translate(0 0.40625)"/>
      </g>
     </g>
    </g>
    <g id="xtick_17">
     <g id="line2d_52">
      <g>
       <use xlink:href="#m3751abe07e" x="825.914643" y="173.52" style="stroke: #000000; stroke-width: 0.8"/>
      </g>
     </g>
     <g id="text_48">
      <!-- $\pi$ -->
      <g transform="translate(821.834643 188.4725) scale(0.16 -0.16)">
       <use xlink:href="#STIXGeneral-Italic-3c0" transform="translate(0 0.203125)"/>
      </g>
     </g>
    </g>
    <g id="xtick_18">
     <g id="line2d_53">
      <g>
       <use xlink:href="#m3751abe07e" x="869.395162" y="173.52" style="stroke: #000000; stroke-width: 0.8"/>
      </g>
     </g>
     <g id="text_49">
      <!-- $2 \pi$ -->
      <g transform="translate(861.315162 188.4725) scale(0.16 -0.16)">
       <use xlink:href="#STIXGeneral-Regular-32" transform="translate(0 0.40625)"/>
       <use xlink:href="#STIXGeneral-Italic-3c0" transform="translate(49.999985 0.40625)"/>
      </g>
     </g>
    </g>
    <g id="text_50">
     <!-- $\theta_{2} - \theta_{3} $ -->
     <g transform="translate(804.074643 207.105) scale(0.16 -0.16)">
      <use xlink:href="#STIXGeneral-Italic-3b8" transform="translate(0 0.203125)"/>
      <use xlink:href="#STIXGeneral-Regular-32" transform="translate(47.999985 -13.025) scale(0.7)"/>
      <use xlink:href="#STIXGeneral-Regular-2212" transform="translate(101.849345 0.203125)"/>
      <use xlink:href="#STIXGeneral-Italic-3b8" transform="translate(184.789326 0.203125)"/>
      <use xlink:href="#STIXGeneral-Regular-33" transform="translate(232.789311 -13.025) scale(0.7)"/>
     </g>
    </g>
   </g>
   <g id="matplotlib.axis_12">
    <g id="ytick_26">
     <g id="line2d_54">
      <g>
       <use xlink:href="#m10e7585db3" x="778.086071" y="173.52" style="stroke: #000000; stroke-width: 0.8"/>
      </g>
     </g>
     <g id="text_51">
      <!-- 0.00 -->
      <g transform="translate(743.448571 179.24625) scale(0.16 -0.16)">
       <use xlink:href="#ArialMT-30"/>
       <use xlink:href="#ArialMT-2e" transform="translate(55.615234 0)"/>
       <use xlink:href="#ArialMT-30" transform="translate(83.398438 0)"/>
       <use xlink:href="#ArialMT-30" transform="translate(139.013672 0)"/>
      </g>
     </g>
    </g>
    <g id="ytick_27">
     <g id="line2d_55">
      <g>
       <use xlink:href="#m10e7585db3" x="778.086071" y="137.363478" style="stroke: #000000; stroke-width: 0.8"/>
      </g>
     </g>
     <g id="text_52">
      <!-- 0.25 -->
      <g transform="translate(743.448571 143.089728) scale(0.16 -0.16)">
       <use xlink:href="#ArialMT-30"/>
       <use xlink:href="#ArialMT-2e" transform="translate(55.615234 0)"/>
       <use xlink:href="#ArialMT-32" transform="translate(83.398438 0)"/>
       <use xlink:href="#ArialMT-35" transform="translate(139.013672 0)"/>
      </g>
     </g>
    </g>
    <g id="ytick_28">
     <g id="line2d_56">
      <g>
       <use xlink:href="#m10e7585db3" x="778.086071" y="101.206957" style="stroke: #000000; stroke-width: 0.8"/>
      </g>
     </g>
     <g id="text_53">
      <!-- 0.50 -->
      <g transform="translate(743.448571 106.933207) scale(0.16 -0.16)">
       <use xlink:href="#ArialMT-30"/>
       <use xlink:href="#ArialMT-2e" transform="translate(55.615234 0)"/>
       <use xlink:href="#ArialMT-35" transform="translate(83.398438 0)"/>
       <use xlink:href="#ArialMT-30" transform="translate(139.013672 0)"/>
      </g>
     </g>
    </g>
    <g id="ytick_29">
     <g id="line2d_57">
      <g>
       <use xlink:href="#m10e7585db3" x="778.086071" y="65.050435" style="stroke: #000000; stroke-width: 0.8"/>
      </g>
     </g>
     <g id="text_54">
      <!-- 0.75 -->
      <g transform="translate(743.448571 70.776685) scale(0.16 -0.16)">
       <use xlink:href="#ArialMT-30"/>
       <use xlink:href="#ArialMT-2e" transform="translate(55.615234 0)"/>
       <use xlink:href="#ArialMT-37" transform="translate(83.398438 0)"/>
       <use xlink:href="#ArialMT-35" transform="translate(139.013672 0)"/>
      </g>
     </g>
    </g>
    <g id="ytick_30">
     <g id="line2d_58">
      <g>
       <use xlink:href="#m10e7585db3" x="778.086071" y="28.893913" style="stroke: #000000; stroke-width: 0.8"/>
      </g>
     </g>
     <g id="text_55">
      <!-- 1.00 -->
      <g transform="translate(743.448571 34.620163) scale(0.16 -0.16)">
       <use xlink:href="#ArialMT-31"/>
       <use xlink:href="#ArialMT-2e" transform="translate(55.615234 0)"/>
       <use xlink:href="#ArialMT-30" transform="translate(83.398438 0)"/>
       <use xlink:href="#ArialMT-30" transform="translate(139.013672 0)"/>
      </g>
     </g>
    </g>
   </g>
   <g id="line2d_59">
    <path d="M 856.972157 173.52 
L 856.972157 14.431304 
" clip-path="url(#pd9cede9f9a)" style="fill: none; stroke-dasharray: 7.4,3.2; stroke-dashoffset: 0; stroke: #ff0000; stroke-width: 2"/>
   </g>
   <g id="line2d_60">
    <path d="M 782.434123 151.169518 
L 784.918724 153.911296 
L 787.403326 155.926581 
L 789.887927 157.326716 
L 792.372528 158.226694 
L 794.857129 158.713242 
L 797.34173 158.845623 
L 799.826331 158.663033 
L 802.310932 158.193103 
L 804.795533 157.461289 
L 807.280135 156.501747 
L 809.764736 155.3693 
L 812.249337 154.149663 
L 814.733938 152.961589 
L 817.218539 151.942708 
L 819.70314 151.21548 
L 822.187741 150.843177 
L 824.672342 150.799785 
L 827.156943 150.975079 
L 829.641545 151.212456 
L 832.126146 151.354123 
L 834.610747 151.26921 
L 837.095348 150.859795 
L 839.579949 150.055279 
L 842.06455 148.808155 
L 844.549151 147.10068 
L 847.033752 144.968957 
L 849.518353 142.547388 
L 852.002955 140.124934 
L 854.487556 138.17712 
L 856.972157 137.30229 
L 859.456758 137.999281 
L 861.941359 140.350701 
L 864.42596 143.866298 
L 866.910561 147.711752 
L 869.395162 151.169518 
" clip-path="url(#pd9cede9f9a)" style="fill: none; stroke: #0000ff; stroke-width: 2; stroke-linecap: square"/>
   </g>
   <g id="patch_136">
    <path d="M 778.086071 173.52 
L 778.086071 7.2 
" style="fill: none; stroke: #000000; stroke-width: 0.8; stroke-linejoin: miter; stroke-linecap: square"/>
   </g>
   <g id="patch_137">
    <path d="M 873.743214 173.52 
L 873.743214 7.2 
" style="fill: none; stroke: #000000; stroke-width: 0.8; stroke-linejoin: miter; stroke-linecap: square"/>
   </g>
   <g id="patch_138">
    <path d="M 778.086071 173.52 
L 873.743214 173.52 
" style="fill: none; stroke: #000000; stroke-width: 0.8; stroke-linejoin: miter; stroke-linecap: square"/>
   </g>
   <g id="patch_139">
    <path d="M 778.086071 7.2 
L 873.743214 7.2 
" style="fill: none; stroke: #000000; stroke-width: 0.8; stroke-linejoin: miter; stroke-linecap: square"/>
   </g>
   <g id="legend_1">
    <g id="patch_140">
     <path d="M 881.726071 80.085 
L 1049.426071 80.085 
Q 1052.626071 80.085 1052.626071 76.885 
L 1052.626071 10.4 
Q 1052.626071 7.2 1049.426071 7.2 
L 881.726071 7.2 
Q 878.526071 7.2 878.526071 10.4 
L 878.526071 76.885 
Q 878.526071 80.085 881.726071 80.085 
z
" style="fill: #ffffff; opacity: 0.8; stroke: #cccccc; stroke-linejoin: miter"/>
    </g>
    <g id="patch_141">
     <path d="M 884.926071 25.0525 
L 916.926071 25.0525 
L 916.926071 13.8525 
L 884.926071 13.8525 
z
" style="fill: #f5f5f5; stroke: #000000; stroke-linejoin: miter"/>
    </g>
    <g id="text_56">
     <!-- emprical -->
     <g transform="translate(929.726071 25.0525) scale(0.16 -0.16)">
      <defs>
       <path id="ArialMT-6d" d="M 422 0 
L 422 3319 
L 925 3319 
L 925 2853 
Q 1081 3097 1340 3245 
Q 1600 3394 1931 3394 
Q 2300 3394 2536 3241 
Q 2772 3088 2869 2813 
Q 3263 3394 3894 3394 
Q 4388 3394 4653 3120 
Q 4919 2847 4919 2278 
L 4919 0 
L 4359 0 
L 4359 2091 
Q 4359 2428 4304 2576 
Q 4250 2725 4106 2815 
Q 3963 2906 3769 2906 
Q 3419 2906 3187 2673 
Q 2956 2441 2956 1928 
L 2956 0 
L 2394 0 
L 2394 2156 
Q 2394 2531 2256 2718 
Q 2119 2906 1806 2906 
Q 1569 2906 1367 2781 
Q 1166 2656 1075 2415 
Q 984 2175 984 1722 
L 984 0 
L 422 0 
z
" transform="scale(0.015625)"/>
       <path id="ArialMT-70" d="M 422 -1272 
L 422 3319 
L 934 3319 
L 934 2888 
Q 1116 3141 1344 3267 
Q 1572 3394 1897 3394 
Q 2322 3394 2647 3175 
Q 2972 2956 3137 2557 
Q 3303 2159 3303 1684 
Q 3303 1175 3120 767 
Q 2938 359 2589 142 
Q 2241 -75 1856 -75 
Q 1575 -75 1351 44 
Q 1128 163 984 344 
L 984 -1272 
L 422 -1272 
z
M 931 1641 
Q 931 1000 1190 694 
Q 1450 388 1819 388 
Q 2194 388 2461 705 
Q 2728 1022 2728 1688 
Q 2728 2322 2467 2637 
Q 2206 2953 1844 2953 
Q 1484 2953 1207 2617 
Q 931 2281 931 1641 
z
" transform="scale(0.015625)"/>
       <path id="ArialMT-72" d="M 416 0 
L 416 3319 
L 922 3319 
L 922 2816 
Q 1116 3169 1280 3281 
Q 1444 3394 1641 3394 
Q 1925 3394 2219 3213 
L 2025 2691 
Q 1819 2813 1613 2813 
Q 1428 2813 1281 2702 
Q 1134 2591 1072 2394 
Q 978 2094 978 1738 
L 978 0 
L 416 0 
z
" transform="scale(0.015625)"/>
       <path id="ArialMT-63" d="M 2588 1216 
L 3141 1144 
Q 3050 572 2676 248 
Q 2303 -75 1759 -75 
Q 1078 -75 664 370 
Q 250 816 250 1647 
Q 250 2184 428 2587 
Q 606 2991 970 3192 
Q 1334 3394 1763 3394 
Q 2303 3394 2647 3120 
Q 2991 2847 3088 2344 
L 2541 2259 
Q 2463 2594 2264 2762 
Q 2066 2931 1784 2931 
Q 1359 2931 1093 2626 
Q 828 2322 828 1663 
Q 828 994 1084 691 
Q 1341 388 1753 388 
Q 2084 388 2306 591 
Q 2528 794 2588 1216 
z
" transform="scale(0.015625)"/>
       <path id="ArialMT-61" d="M 2588 409 
Q 2275 144 1986 34 
Q 1697 -75 1366 -75 
Q 819 -75 525 192 
Q 231 459 231 875 
Q 231 1119 342 1320 
Q 453 1522 633 1644 
Q 813 1766 1038 1828 
Q 1203 1872 1538 1913 
Q 2219 1994 2541 2106 
Q 2544 2222 2544 2253 
Q 2544 2597 2384 2738 
Q 2169 2928 1744 2928 
Q 1347 2928 1158 2789 
Q 969 2650 878 2297 
L 328 2372 
Q 403 2725 575 2942 
Q 747 3159 1072 3276 
Q 1397 3394 1825 3394 
Q 2250 3394 2515 3294 
Q 2781 3194 2906 3042 
Q 3031 2891 3081 2659 
Q 3109 2516 3109 2141 
L 3109 1391 
Q 3109 606 3145 398 
Q 3181 191 3288 0 
L 2700 0 
Q 2613 175 2588 409 
z
M 2541 1666 
Q 2234 1541 1622 1453 
Q 1275 1403 1131 1340 
Q 988 1278 909 1158 
Q 831 1038 831 891 
Q 831 666 1001 516 
Q 1172 366 1500 366 
Q 1825 366 2078 508 
Q 2331 650 2450 897 
Q 2541 1088 2541 1459 
L 2541 1666 
z
" transform="scale(0.015625)"/>
       <path id="ArialMT-6c" d="M 409 0 
L 409 4581 
L 972 4581 
L 972 0 
L 409 0 
z
" transform="scale(0.015625)"/>
      </defs>
      <use xlink:href="#ArialMT-65"/>
      <use xlink:href="#ArialMT-6d" transform="translate(55.615234 0)"/>
      <use xlink:href="#ArialMT-70" transform="translate(138.916016 0)"/>
      <use xlink:href="#ArialMT-72" transform="translate(194.53125 0)"/>
      <use xlink:href="#ArialMT-69" transform="translate(227.832031 0)"/>
      <use xlink:href="#ArialMT-63" transform="translate(250.048828 0)"/>
      <use xlink:href="#ArialMT-61" transform="translate(300.048828 0)"/>
      <use xlink:href="#ArialMT-6c" transform="translate(355.664062 0)"/>
     </g>
    </g>
    <g id="line2d_61">
     <path d="M 884.926071 42.085 
L 900.926071 42.085 
L 916.926071 42.085 
" style="fill: none; stroke-dasharray: 7.4,3.2; stroke-dashoffset: 0; stroke: #ff0000; stroke-width: 2"/>
    </g>
    <g id="text_57">
     <!-- equilibrium point -->
     <g transform="translate(929.726071 47.685) scale(0.16 -0.16)">
      <defs>
       <path id="ArialMT-71" d="M 2538 -1272 
L 2538 353 
Q 2406 169 2170 47 
Q 1934 -75 1669 -75 
Q 1078 -75 651 397 
Q 225 869 225 1691 
Q 225 2191 398 2587 
Q 572 2984 901 3189 
Q 1231 3394 1625 3394 
Q 2241 3394 2594 2875 
L 2594 3319 
L 3100 3319 
L 3100 -1272 
L 2538 -1272 
z
M 803 1669 
Q 803 1028 1072 708 
Q 1341 388 1716 388 
Q 2075 388 2334 692 
Q 2594 997 2594 1619 
Q 2594 2281 2320 2615 
Q 2047 2950 1678 2950 
Q 1313 2950 1058 2639 
Q 803 2328 803 1669 
z
" transform="scale(0.015625)"/>
       <path id="ArialMT-75" d="M 2597 0 
L 2597 488 
Q 2209 -75 1544 -75 
Q 1250 -75 995 37 
Q 741 150 617 320 
Q 494 491 444 738 
Q 409 903 409 1263 
L 409 3319 
L 972 3319 
L 972 1478 
Q 972 1038 1006 884 
Q 1059 663 1231 536 
Q 1403 409 1656 409 
Q 1909 409 2131 539 
Q 2353 669 2445 892 
Q 2538 1116 2538 1541 
L 2538 3319 
L 3100 3319 
L 3100 0 
L 2597 0 
z
" transform="scale(0.015625)"/>
       <path id="ArialMT-62" d="M 941 0 
L 419 0 
L 419 4581 
L 981 4581 
L 981 2947 
Q 1338 3394 1891 3394 
Q 2197 3394 2470 3270 
Q 2744 3147 2920 2923 
Q 3097 2700 3197 2384 
Q 3297 2069 3297 1709 
Q 3297 856 2875 390 
Q 2453 -75 1863 -75 
Q 1275 -75 941 416 
L 941 0 
z
M 934 1684 
Q 934 1088 1097 822 
Q 1363 388 1816 388 
Q 2184 388 2453 708 
Q 2722 1028 2722 1663 
Q 2722 2313 2464 2622 
Q 2206 2931 1841 2931 
Q 1472 2931 1203 2611 
Q 934 2291 934 1684 
z
" transform="scale(0.015625)"/>
       <path id="ArialMT-20" transform="scale(0.015625)"/>
       <path id="ArialMT-6f" d="M 213 1659 
Q 213 2581 725 3025 
Q 1153 3394 1769 3394 
Q 2453 3394 2887 2945 
Q 3322 2497 3322 1706 
Q 3322 1066 3130 698 
Q 2938 331 2570 128 
Q 2203 -75 1769 -75 
Q 1072 -75 642 372 
Q 213 819 213 1659 
z
M 791 1659 
Q 791 1022 1069 705 
Q 1347 388 1769 388 
Q 2188 388 2466 706 
Q 2744 1025 2744 1678 
Q 2744 2294 2464 2611 
Q 2184 2928 1769 2928 
Q 1347 2928 1069 2612 
Q 791 2297 791 1659 
z
" transform="scale(0.015625)"/>
      </defs>
      <use xlink:href="#ArialMT-65"/>
      <use xlink:href="#ArialMT-71" transform="translate(55.615234 0)"/>
      <use xlink:href="#ArialMT-75" transform="translate(111.230469 0)"/>
      <use xlink:href="#ArialMT-69" transform="translate(166.845703 0)"/>
      <use xlink:href="#ArialMT-6c" transform="translate(189.0625 0)"/>
      <use xlink:href="#ArialMT-69" transform="translate(211.279297 0)"/>
      <use xlink:href="#ArialMT-62" transform="translate(233.496094 0)"/>
      <use xlink:href="#ArialMT-72" transform="translate(289.111328 0)"/>
      <use xlink:href="#ArialMT-69" transform="translate(322.412109 0)"/>
      <use xlink:href="#ArialMT-75" transform="translate(344.628906 0)"/>
      <use xlink:href="#ArialMT-6d" transform="translate(400.244141 0)"/>
      <use xlink:href="#ArialMT-20" transform="translate(483.544922 0)"/>
      <use xlink:href="#ArialMT-70" transform="translate(511.328125 0)"/>
      <use xlink:href="#ArialMT-6f" transform="translate(566.943359 0)"/>
      <use xlink:href="#ArialMT-69" transform="translate(622.558594 0)"/>
      <use xlink:href="#ArialMT-6e" transform="translate(644.775391 0)"/>
      <use xlink:href="#ArialMT-74" transform="translate(700.390625 0)"/>
     </g>
    </g>
    <g id="line2d_62">
     <path d="M 884.926071 64.7175 
L 900.926071 64.7175 
L 916.926071 64.7175 
" style="fill: none; stroke: #0000ff; stroke-width: 2; stroke-linecap: square"/>
    </g>
    <g id="text_58">
     <!-- analytical -->
     <g transform="translate(929.726071 70.3175) scale(0.16 -0.16)">
      <use xlink:href="#ArialMT-61"/>
      <use xlink:href="#ArialMT-6e" transform="translate(55.615234 0)"/>
      <use xlink:href="#ArialMT-61" transform="translate(111.230469 0)"/>
      <use xlink:href="#ArialMT-6c" transform="translate(166.845703 0)"/>
      <use xlink:href="#ArialMT-79" transform="translate(189.0625 0)"/>
      <use xlink:href="#ArialMT-74" transform="translate(239.0625 0)"/>
      <use xlink:href="#ArialMT-69" transform="translate(266.845703 0)"/>
      <use xlink:href="#ArialMT-63" transform="translate(289.0625 0)"/>
      <use xlink:href="#ArialMT-61" transform="translate(339.0625 0)"/>
      <use xlink:href="#ArialMT-6c" transform="translate(394.677734 0)"/>
     </g>
    </g>
   </g>
  </g>
 </g>
 <defs>
  <clipPath id="p4e052f48ce">
   <rect x="60.6575" y="7.2" width="95.657143" height="166.32"/>
  </clipPath>
  <clipPath id="p8d1756f8f6">
   <rect x="204.143214" y="7.2" width="95.657143" height="166.32"/>
  </clipPath>
  <clipPath id="p37c75d65d0">
   <rect x="347.628929" y="7.2" width="95.657143" height="166.32"/>
  </clipPath>
  <clipPath id="pc7f505720a">
   <rect x="491.114643" y="7.2" width="95.657143" height="166.32"/>
  </clipPath>
  <clipPath id="p7a8a37b1be">
   <rect x="634.600357" y="7.2" width="95.657143" height="166.32"/>
  </clipPath>
  <clipPath id="pd9cede9f9a">
   <rect x="778.086071" y="7.2" width="95.657143" height="166.32"/>
  </clipPath>
 </defs>
</svg>
