<?xml version="1.0" encoding="utf-8" standalone="no"?>
<!DOCTYPE svg PUBLIC "-//W3C//DTD SVG 1.1//EN"
  "http://www.w3.org/Graphics/SVG/1.1/DTD/svg11.dtd">
<svg xmlns:xlink="http://www.w3.org/1999/xlink" width="393.8992pt" height="389.374604pt" viewBox="0 0 393.8992 389.374604" xmlns="http://www.w3.org/2000/svg" version="1.1">
 <metadata>
  <rdf:RDF xmlns:dc="http://purl.org/dc/elements/1.1/" xmlns:cc="http://creativecommons.org/ns#" xmlns:rdf="http://www.w3.org/1999/02/22-rdf-syntax-ns#">
   <cc:Work>
    <dc:type rdf:resource="http://purl.org/dc/dcmitype/StillImage"/>
    <dc:date>2026-02-26T00:05:18.639671</dc:date>
    <dc:format>image/svg+xml</dc:format>
    <dc:creator>
     <cc:Agent>
      <dc:title>Matplotlib v3.10.6, https://matplotlib.org/</dc:title>
     </cc:Agent>
    </dc:creator>
   </cc:Work>
  </rdf:RDF>
 </metadata>
 <defs>
  <style type="text/css">*{stroke-linejoin: round; stroke-linecap: butt}</style>
 </defs>
 <g id="figure_1">
  <g id="patch_1">
   <path d="M -0 389.374604 
L 393.8992 389.374604 
L 393.8992 0 
L -0 0 
z
" style="fill: #ffffff"/>
  </g>
  <g id="axes_1">
   <g id="text_1">
    <!-- to $\theta_{0}$ -->
    <g transform="translate(53.744101 73.030474) scale(0.2 -0.2)">
     <defs>
      <path id="ArialMT-74" d="M 1650 503 
L 1731 6 
Q 1494 -44 1306 -44 
Q 1000 -44 831 53 
Q 663 150 594 308 
Q 525 466 525 972 
L 525 2881 
L 113 2881 
L 113 3319 
L 525 3319 
L 525 4141 
L 1084 4478 
L 1084 3319 
L 1650 3319 
L 1650 2881 
L 1084 2881 
L 1084 941 
Q 1084 700 1114 631 
Q 1144 563 1211 522 
Q 1278 481 1403 481 
Q 1497 481 1650 503 
z
" transform="scale(0.015625)"/>
      <path id="ArialMT-6f" d="M 213 1659 
Q 213 2581 725 3025 
Q 1153 3394 1769 3394 
Q 2453 3394 2887 2945 
Q 3322 2497 3322 1706 
Q 3322 1066 3130 698 
Q 2938 331 2570 128 
Q 2203 -75 1769 -75 
Q 1072 -75 642 372 
Q 213 819 213 1659 
z
M 791 1659 
Q 791 1022 1069 705 
Q 1347 388 1769 388 
Q 2188 388 2466 706 
Q 2744 1025 2744 1678 
Q 2744 2294 2464 2611 
Q 2184 2928 1769 2928 
Q 1347 2928 1069 2612 
Q 791 2297 791 1659 
z
" transform="scale(0.015625)"/>
      <path id="ArialMT-20" transform="scale(0.015625)"/>
      <path id="STIXGeneral-Italic-3b8" d="M 3162 3270 
Q 3162 2534 2925 1862 
Q 2688 1190 2304 678 
Q 1741 -70 992 -70 
Q 608 -70 390 224 
Q 173 518 173 1030 
Q 173 1997 592 2813 
Q 1011 3629 1594 4070 
Q 1952 4339 2374 4339 
Q 2733 4339 2947 4076 
Q 3162 3814 3162 3270 
z
M 941 2221 
L 2432 2221 
Q 2624 2874 2624 3533 
Q 2624 4205 2285 4205 
Q 2029 4205 1728 3814 
Q 1427 3424 1232 2992 
Q 1037 2560 941 2221 
z
M 2387 2016 
L 896 2016 
Q 710 1530 710 960 
Q 710 64 1069 64 
Q 1286 64 1510 275 
Q 1734 486 1904 806 
Q 2074 1126 2198 1440 
Q 2323 1754 2387 2016 
z
" transform="scale(0.015625)"/>
      <path id="STIXGeneral-Regular-30" d="M 3046 2112 
Q 3046 1683 2963 1302 
Q 2880 922 2717 602 
Q 2554 282 2266 96 
Q 1978 -90 1600 -90 
Q 1210 -90 915 108 
Q 621 307 461 640 
Q 301 973 227 1350 
Q 154 1728 154 2150 
Q 154 2746 301 3222 
Q 448 3699 790 4012 
Q 1133 4326 1626 4326 
Q 2253 4326 2649 3712 
Q 3046 3098 3046 2112 
z
M 2432 2080 
Q 2432 3091 2217 3625 
Q 2003 4160 1587 4160 
Q 1190 4160 979 3622 
Q 768 3085 768 2106 
Q 768 1120 979 598 
Q 1190 77 1600 77 
Q 2003 77 2217 598 
Q 2432 1120 2432 2080 
z
" transform="scale(0.015625)"/>
     </defs>
     <use xlink:href="#ArialMT-74" transform="translate(0 0.03125)"/>
     <use xlink:href="#ArialMT-6f" transform="translate(27.783203 0.03125)"/>
     <use xlink:href="#ArialMT-20" transform="translate(83.398438 0.03125)"/>
     <use xlink:href="#STIXGeneral-Italic-3b8" transform="translate(111.181641 0.03125)"/>
     <use xlink:href="#STIXGeneral-Regular-30" transform="translate(159.181625 -13.196875) scale(0.7)"/>
    </g>
   </g>
  </g>
  <g id="axes_2">
   <g id="patch_2">
    <path d="M 178.136196 85.082648 
L 250.918804 85.082648 
L 250.918804 12.769604 
L 178.136196 12.769604 
z
" style="fill: #ffffff"/>
   </g>
   <g id="matplotlib.axis_1">
    <g id="xtick_1">
     <g id="line2d_1">
      <defs>
       <path id="m083c08fada" d="M 0 0 
L 0 -3.5 
" style="stroke: #000000; stroke-width: 0.8"/>
      </defs>
      <g>
       <use xlink:href="#m083c08fada" x="181.444496" y="85.082648" style="stroke: #000000; stroke-width: 0.8"/>
      </g>
     </g>
     <g id="text_2">
      <!-- $0$ -->
      <g transform="translate(177.444496 100.035148) scale(0.16 -0.16)">
       <use xlink:href="#STIXGeneral-Regular-30" transform="translate(0 0.40625)"/>
      </g>
     </g>
    </g>
    <g id="xtick_2">
     <g id="line2d_2">
      <g>
       <use xlink:href="#m083c08fada" x="214.5275" y="85.082648" style="stroke: #000000; stroke-width: 0.8"/>
      </g>
     </g>
     <g id="text_3">
      <!-- $\pi$ -->
      <g transform="translate(210.4475 100.035148) scale(0.16 -0.16)">
       <defs>
        <path id="STIXGeneral-Italic-3c0" d="M 3430 2739 
L 3296 2266 
L 2643 2266 
Q 2624 2195 2502 1782 
Q 2381 1370 2297 1072 
Q 2214 774 2214 717 
Q 2214 448 2413 448 
Q 2694 448 2867 838 
L 2970 838 
Q 2886 486 2652 208 
Q 2419 -70 2093 -70 
Q 1901 -70 1808 67 
Q 1715 205 1715 410 
Q 1715 627 1824 922 
L 2310 2266 
L 1645 2266 
Q 1568 2061 1401 1469 
Q 1235 877 1068 512 
Q 902 147 672 -38 
Q 563 -115 442 -115 
Q 314 -115 218 -32 
Q 122 51 122 166 
Q 122 429 314 480 
Q 634 563 774 928 
L 1299 2266 
L 1261 2266 
Q 973 2266 819 2208 
Q 666 2150 474 1914 
L 371 1914 
Q 640 2362 931 2550 
Q 1222 2739 1696 2739 
L 3430 2739 
z
" transform="scale(0.015625)"/>
       </defs>
       <use xlink:href="#STIXGeneral-Italic-3c0" transform="translate(0 0.203125)"/>
      </g>
     </g>
    </g>
    <g id="xtick_3">
     <g id="line2d_3">
      <g>
       <use xlink:href="#m083c08fada" x="247.610504" y="85.082648" style="stroke: #000000; stroke-width: 0.8"/>
      </g>
     </g>
     <g id="text_4">
      <!-- $2 \pi$ -->
      <g transform="translate(239.530504 100.035148) scale(0.16 -0.16)">
       <defs>
        <path id="STIXGeneral-Regular-32" d="M 3034 877 
L 2688 0 
L 186 0 
L 186 77 
L 1325 1286 
Q 1773 1754 1965 2144 
Q 2157 2534 2157 2950 
Q 2157 3379 1920 3616 
Q 1683 3853 1267 3853 
Q 922 3853 720 3673 
Q 518 3494 326 3021 
L 192 3053 
Q 301 3648 630 3987 
Q 960 4326 1523 4326 
Q 2054 4326 2380 4006 
Q 2707 3686 2707 3200 
Q 2707 2477 1888 1613 
L 832 486 
L 2330 486 
Q 2541 486 2665 569 
Q 2790 653 2944 915 
L 3034 877 
z
" transform="scale(0.015625)"/>
       </defs>
       <use xlink:href="#STIXGeneral-Regular-32" transform="translate(0 0.40625)"/>
       <use xlink:href="#STIXGeneral-Italic-3c0" transform="translate(49.999985 0.40625)"/>
      </g>
     </g>
    </g>
    <g id="text_5">
     <!-- $\theta_{1} - \theta_{0} $ -->
     <g transform="translate(192.6875 118.667648) scale(0.16 -0.16)">
      <defs>
       <path id="STIXGeneral-Regular-31" d="M 2522 0 
L 755 0 
L 755 96 
Q 1107 115 1235 227 
Q 1363 339 1363 608 
L 1363 3482 
Q 1363 3795 1171 3795 
Q 1082 3795 883 3718 
L 710 3654 
L 710 3744 
L 1856 4326 
L 1914 4307 
L 1914 486 
Q 1914 275 2042 185 
Q 2170 96 2522 96 
L 2522 0 
z
" transform="scale(0.015625)"/>
       <path id="STIXGeneral-Regular-2212" d="M 3974 1408 
L 410 1408 
L 410 1830 
L 3974 1830 
L 3974 1408 
z
" transform="scale(0.015625)"/>
      </defs>
      <use xlink:href="#STIXGeneral-Italic-3b8" transform="translate(0 0.203125)"/>
      <use xlink:href="#STIXGeneral-Regular-31" transform="translate(47.999985 -13.025) scale(0.7)"/>
      <use xlink:href="#STIXGeneral-Regular-2212" transform="translate(101.849345 0.203125)"/>
      <use xlink:href="#STIXGeneral-Italic-3b8" transform="translate(184.789326 0.203125)"/>
      <use xlink:href="#STIXGeneral-Regular-30" transform="translate(232.789311 -13.025) scale(0.7)"/>
     </g>
    </g>
   </g>
   <g id="matplotlib.axis_2">
    <g id="ytick_1">
     <g id="line2d_4">
      <defs>
       <path id="md7c2127d0d" d="M 0 0 
L 3.5 0 
" style="stroke: #000000; stroke-width: 0.8"/>
      </defs>
      <g>
       <use xlink:href="#md7c2127d0d" x="178.136196" y="49.082772" style="stroke: #000000; stroke-width: 0.8"/>
      </g>
     </g>
     <g id="text_6">
      <!-- 66 -->
      <g transform="translate(156.841196 54.809022) scale(0.16 -0.16)">
       <defs>
        <path id="ArialMT-36" d="M 3184 3459 
L 2625 3416 
Q 2550 3747 2413 3897 
Q 2184 4138 1850 4138 
Q 1581 4138 1378 3988 
Q 1113 3794 959 3422 
Q 806 3050 800 2363 
Q 1003 2672 1297 2822 
Q 1591 2972 1913 2972 
Q 2475 2972 2870 2558 
Q 3266 2144 3266 1488 
Q 3266 1056 3080 686 
Q 2894 316 2569 119 
Q 2244 -78 1831 -78 
Q 1128 -78 684 439 
Q 241 956 241 2144 
Q 241 3472 731 4075 
Q 1159 4600 1884 4600 
Q 2425 4600 2770 4297 
Q 3116 3994 3184 3459 
z
M 888 1484 
Q 888 1194 1011 928 
Q 1134 663 1356 523 
Q 1578 384 1822 384 
Q 2178 384 2434 671 
Q 2691 959 2691 1453 
Q 2691 1928 2437 2201 
Q 2184 2475 1800 2475 
Q 1419 2475 1153 2201 
Q 888 1928 888 1484 
z
" transform="scale(0.015625)"/>
       </defs>
       <use xlink:href="#ArialMT-36"/>
       <use xlink:href="#ArialMT-36" transform="translate(55.615234 0)"/>
      </g>
     </g>
    </g>
    <g id="ytick_2">
     <g id="line2d_5">
      <g>
       <use xlink:href="#md7c2127d0d" x="178.136196" y="12.92625" style="stroke: #000000; stroke-width: 0.8"/>
      </g>
     </g>
     <g id="text_7">
      <!-- 67 -->
      <g transform="translate(156.841196 18.6525) scale(0.16 -0.16)">
       <defs>
        <path id="ArialMT-37" d="M 303 3981 
L 303 4522 
L 3269 4522 
L 3269 4084 
Q 2831 3619 2401 2847 
Q 1972 2075 1738 1259 
Q 1569 684 1522 0 
L 944 0 
Q 953 541 1156 1306 
Q 1359 2072 1739 2783 
Q 2119 3494 2547 3981 
L 303 3981 
z
" transform="scale(0.015625)"/>
       </defs>
       <use xlink:href="#ArialMT-36"/>
       <use xlink:href="#ArialMT-37" transform="translate(55.615234 0)"/>
      </g>
     </g>
    </g>
    <g id="text_8">
     <!-- $d \theta_{0} / dt $ -->
     <g transform="translate(149.661196 68.446126) rotate(-90) scale(0.16 -0.16)">
      <defs>
       <path id="STIXGeneral-Italic-64" d="M 3334 4371 
L 3373 4333 
L 3123 3360 
L 2739 1958 
Q 2323 429 2323 384 
Q 2323 256 2438 256 
Q 2522 256 2614 336 
Q 2707 416 2963 710 
L 3040 646 
Q 2547 -83 2099 -83 
Q 1978 -83 1907 -6 
Q 1837 70 1837 205 
Q 1837 397 1920 774 
Q 1645 307 1379 118 
Q 1114 -70 781 -70 
Q 461 -70 278 125 
Q 96 320 96 678 
Q 96 1440 713 2131 
Q 1331 2822 1965 2822 
Q 2163 2822 2256 2732 
Q 2349 2643 2381 2451 
L 2387 2451 
L 2675 3494 
Q 2765 3808 2765 3949 
Q 2765 4051 2694 4076 
Q 2624 4102 2355 4115 
L 2355 4224 
Q 2848 4269 3334 4371 
z
M 2278 2310 
Q 2278 2477 2185 2576 
Q 2093 2675 1978 2675 
Q 1677 2675 1395 2381 
Q 1075 2042 864 1571 
Q 653 1101 653 704 
Q 653 486 752 361 
Q 851 237 1024 237 
Q 1312 237 1606 550 
Q 1901 864 2089 1350 
Q 2278 1837 2278 2310 
z
" transform="scale(0.015625)"/>
       <path id="STIXGeneral-Regular-2f" d="M 1837 4326 
L 378 -90 
L -58 -90 
L 1408 4326 
L 1837 4326 
z
" transform="scale(0.015625)"/>
       <path id="STIXGeneral-Italic-74" d="M 1894 2739 
L 1862 2534 
L 1325 2534 
L 768 435 
Q 755 384 755 346 
Q 755 243 851 243 
Q 928 243 1030 342 
Q 1133 442 1370 749 
L 1453 704 
Q 1158 256 969 93 
Q 781 -70 538 -70 
Q 243 -70 243 166 
Q 243 230 346 640 
L 845 2534 
L 365 2534 
L 358 2573 
Q 358 2688 570 2733 
Q 730 2771 992 2979 
Q 1254 3187 1421 3437 
Q 1459 3494 1510 3494 
Q 1568 3494 1568 3443 
Q 1568 3411 1562 3398 
L 1382 2739 
L 1894 2739 
z
" transform="scale(0.015625)"/>
      </defs>
      <use xlink:href="#STIXGeneral-Italic-64" transform="translate(0 0.703125)"/>
      <use xlink:href="#STIXGeneral-Italic-3b8" transform="translate(49.999985 0.703125)"/>
      <use xlink:href="#STIXGeneral-Regular-30" transform="translate(97.999969 -12.525) scale(0.7)"/>
      <use xlink:href="#STIXGeneral-Regular-2f" transform="translate(137.409334 0.703125)"/>
      <use xlink:href="#STIXGeneral-Italic-64" transform="translate(165.209322 0.703125)"/>
      <use xlink:href="#STIXGeneral-Italic-74" transform="translate(215.209306 0.703125)"/>
     </g>
    </g>
   </g>
   <g id="line2d_6">
    <path d="M 181.444496 47.541304 
L 183.726083 45.892548 
L 186.007669 44.503789 
L 188.289255 43.54274 
L 190.570842 43.116278 
L 192.852428 43.253995 
L 195.134015 43.905031 
L 197.415601 44.948664 
L 199.697188 46.216643 
L 201.978774 47.523133 
L 204.260361 48.6968 
L 206.541947 49.6092 
L 208.823534 50.194381 
L 211.10512 50.456275 
L 213.386707 50.462728 
L 215.668293 50.327521 
L 217.94988 50.183964 
L 220.231466 50.155189 
L 222.513053 50.326871 
L 224.794639 50.727634 
L 227.076226 51.320939 
L 229.357812 52.01008 
L 231.639399 52.655456 
L 233.920985 53.100948 
L 236.202572 53.204497 
L 238.484158 52.867155 
L 240.765745 52.05511 
L 243.047331 50.810432 
L 245.328917 49.248346 
L 247.610504 47.541304 
" clip-path="url(#p86f284e2c3)" style="fill: none; stroke: #00bfbf; stroke-width: 2; stroke-linecap: square"/>
   </g>
   <g id="patch_3">
    <path d="M 178.136196 85.082648 
L 178.136196 12.769604 
" style="fill: none; stroke: #000000; stroke-width: 0.8; stroke-linejoin: miter; stroke-linecap: square"/>
   </g>
   <g id="patch_4">
    <path d="M 250.918804 85.082648 
L 250.918804 12.769604 
" style="fill: none; stroke: #000000; stroke-width: 0.8; stroke-linejoin: miter; stroke-linecap: square"/>
   </g>
   <g id="patch_5">
    <path d="M 178.136196 85.082648 
L 250.918804 85.082648 
" style="fill: none; stroke: #000000; stroke-width: 0.8; stroke-linejoin: miter; stroke-linecap: square"/>
   </g>
   <g id="patch_6">
    <path d="M 178.136196 12.769604 
L 250.918804 12.769604 
" style="fill: none; stroke: #000000; stroke-width: 0.8; stroke-linejoin: miter; stroke-linecap: square"/>
   </g>
  </g>
  <g id="axes_3">
   <g id="patch_7">
    <path d="M 309.144891 85.082648 
L 381.9275 85.082648 
L 381.9275 12.769604 
L 309.144891 12.769604 
z
" style="fill: #ffffff"/>
   </g>
   <g id="matplotlib.axis_3">
    <g id="xtick_4">
     <g id="line2d_7">
      <g>
       <use xlink:href="#m083c08fada" x="312.453192" y="85.082648" style="stroke: #000000; stroke-width: 0.8"/>
      </g>
     </g>
     <g id="text_9">
      <!-- $0$ -->
      <g transform="translate(308.453192 100.035148) scale(0.16 -0.16)">
       <use xlink:href="#STIXGeneral-Regular-30" transform="translate(0 0.40625)"/>
      </g>
     </g>
    </g>
    <g id="xtick_5">
     <g id="line2d_8">
      <g>
       <use xlink:href="#m083c08fada" x="345.536196" y="85.082648" style="stroke: #000000; stroke-width: 0.8"/>
      </g>
     </g>
     <g id="text_10">
      <!-- $\pi$ -->
      <g transform="translate(341.456196 100.035148) scale(0.16 -0.16)">
       <use xlink:href="#STIXGeneral-Italic-3c0" transform="translate(0 0.203125)"/>
      </g>
     </g>
    </g>
    <g id="xtick_6">
     <g id="line2d_9">
      <g>
       <use xlink:href="#m083c08fada" x="378.6192" y="85.082648" style="stroke: #000000; stroke-width: 0.8"/>
      </g>
     </g>
     <g id="text_11">
      <!-- $2 \pi$ -->
      <g transform="translate(370.5392 100.035148) scale(0.16 -0.16)">
       <use xlink:href="#STIXGeneral-Regular-32" transform="translate(0 0.40625)"/>
       <use xlink:href="#STIXGeneral-Italic-3c0" transform="translate(49.999985 0.40625)"/>
      </g>
     </g>
    </g>
    <g id="text_12">
     <!-- $\theta_{2} - \theta_{0} $ -->
     <g transform="translate(323.696196 118.667648) scale(0.16 -0.16)">
      <use xlink:href="#STIXGeneral-Italic-3b8" transform="translate(0 0.203125)"/>
      <use xlink:href="#STIXGeneral-Regular-32" transform="translate(47.999985 -13.025) scale(0.7)"/>
      <use xlink:href="#STIXGeneral-Regular-2212" transform="translate(101.849345 0.203125)"/>
      <use xlink:href="#STIXGeneral-Italic-3b8" transform="translate(184.789326 0.203125)"/>
      <use xlink:href="#STIXGeneral-Regular-30" transform="translate(232.789311 -13.025) scale(0.7)"/>
     </g>
    </g>
   </g>
   <g id="matplotlib.axis_4">
    <g id="ytick_3">
     <g id="line2d_10">
      <g>
       <use xlink:href="#md7c2127d0d" x="309.144891" y="49.082772" style="stroke: #000000; stroke-width: 0.8"/>
      </g>
     </g>
     <g id="text_13">
      <!-- 66 -->
      <g transform="translate(287.849891 54.809022) scale(0.16 -0.16)">
       <use xlink:href="#ArialMT-36"/>
       <use xlink:href="#ArialMT-36" transform="translate(55.615234 0)"/>
      </g>
     </g>
    </g>
    <g id="ytick_4">
     <g id="line2d_11">
      <g>
       <use xlink:href="#md7c2127d0d" x="309.144891" y="12.92625" style="stroke: #000000; stroke-width: 0.8"/>
      </g>
     </g>
     <g id="text_14">
      <!-- 67 -->
      <g transform="translate(287.849891 18.6525) scale(0.16 -0.16)">
       <use xlink:href="#ArialMT-36"/>
       <use xlink:href="#ArialMT-37" transform="translate(55.615234 0)"/>
      </g>
     </g>
    </g>
    <g id="text_15">
     <!-- $d \theta_{0} / dt $ -->
     <g transform="translate(280.669891 68.446126) rotate(-90) scale(0.16 -0.16)">
      <use xlink:href="#STIXGeneral-Italic-64" transform="translate(0 0.703125)"/>
      <use xlink:href="#STIXGeneral-Italic-3b8" transform="translate(49.999985 0.703125)"/>
      <use xlink:href="#STIXGeneral-Regular-30" transform="translate(97.999969 -12.525) scale(0.7)"/>
      <use xlink:href="#STIXGeneral-Regular-2f" transform="translate(137.409334 0.703125)"/>
      <use xlink:href="#STIXGeneral-Italic-64" transform="translate(165.209322 0.703125)"/>
      <use xlink:href="#STIXGeneral-Italic-74" transform="translate(215.209306 0.703125)"/>
     </g>
    </g>
   </g>
   <g id="line2d_12">
    <path d="M 312.453192 48.904118 
L 314.734778 48.91388 
L 317.016365 48.921877 
L 319.297951 48.927183 
L 321.579538 48.929534 
L 323.861124 48.929338 
L 326.142711 48.927568 
L 328.424297 48.925529 
L 330.705884 48.924579 
L 332.98747 48.925829 
L 335.269056 48.929891 
L 337.550643 48.936732 
L 339.832229 48.94564 
L 342.113816 48.955333 
L 344.395402 48.964181 
L 346.676989 48.970493 
L 348.958575 48.97284 
L 351.240162 48.970327 
L 353.521748 48.96278 
L 355.803335 48.950809 
L 358.084921 48.935733 
L 360.366508 48.919375 
L 362.648094 48.903774 
L 364.929681 48.890849 
L 367.211267 48.882096 
L 369.492854 48.878348 
L 371.77444 48.879658 
L 374.056027 48.885323 
L 376.337613 48.89403 
L 378.6192 48.904118 
" clip-path="url(#pcf35f4037c)" style="fill: none; stroke: #00bfbf; stroke-width: 2; stroke-linecap: square"/>
   </g>
   <g id="patch_8">
    <path d="M 309.144891 85.082648 
L 309.144891 12.769604 
" style="fill: none; stroke: #000000; stroke-width: 0.8; stroke-linejoin: miter; stroke-linecap: square"/>
   </g>
   <g id="patch_9">
    <path d="M 381.9275 85.082648 
L 381.9275 12.769604 
" style="fill: none; stroke: #000000; stroke-width: 0.8; stroke-linejoin: miter; stroke-linecap: square"/>
   </g>
   <g id="patch_10">
    <path d="M 309.144891 85.082648 
L 381.9275 85.082648 
" style="fill: none; stroke: #000000; stroke-width: 0.8; stroke-linejoin: miter; stroke-linecap: square"/>
   </g>
   <g id="patch_11">
    <path d="M 309.144891 12.769604 
L 381.9275 12.769604 
" style="fill: none; stroke: #000000; stroke-width: 0.8; stroke-linejoin: miter; stroke-linecap: square"/>
   </g>
  </g>
  <g id="axes_4">
   <g id="patch_12">
    <path d="M 47.1275 215.246126 
L 119.910109 215.246126 
L 119.910109 142.933082 
L 47.1275 142.933082 
z
" style="fill: #ffffff"/>
   </g>
   <g id="matplotlib.axis_5">
    <g id="xtick_7">
     <g id="line2d_13">
      <g>
       <use xlink:href="#m083c08fada" x="50.4358" y="215.246126" style="stroke: #000000; stroke-width: 0.8"/>
      </g>
     </g>
     <g id="text_16">
      <!-- $0$ -->
      <g transform="translate(46.4358 230.198626) scale(0.16 -0.16)">
       <use xlink:href="#STIXGeneral-Regular-30" transform="translate(0 0.40625)"/>
      </g>
     </g>
    </g>
    <g id="xtick_8">
     <g id="line2d_14">
      <g>
       <use xlink:href="#m083c08fada" x="83.518804" y="215.246126" style="stroke: #000000; stroke-width: 0.8"/>
      </g>
     </g>
     <g id="text_17">
      <!-- $\pi$ -->
      <g transform="translate(79.438804 230.198626) scale(0.16 -0.16)">
       <use xlink:href="#STIXGeneral-Italic-3c0" transform="translate(0 0.203125)"/>
      </g>
     </g>
    </g>
    <g id="xtick_9">
     <g id="line2d_15">
      <g>
       <use xlink:href="#m083c08fada" x="116.601808" y="215.246126" style="stroke: #000000; stroke-width: 0.8"/>
      </g>
     </g>
     <g id="text_18">
      <!-- $2 \pi$ -->
      <g transform="translate(108.521808 230.198626) scale(0.16 -0.16)">
       <use xlink:href="#STIXGeneral-Regular-32" transform="translate(0 0.40625)"/>
       <use xlink:href="#STIXGeneral-Italic-3c0" transform="translate(49.999985 0.40625)"/>
      </g>
     </g>
    </g>
    <g id="text_19">
     <!-- $\theta_{0} - \theta_{1} $ -->
     <g transform="translate(61.678804 248.831126) scale(0.16 -0.16)">
      <use xlink:href="#STIXGeneral-Italic-3b8" transform="translate(0 0.203125)"/>
      <use xlink:href="#STIXGeneral-Regular-30" transform="translate(47.999985 -13.025) scale(0.7)"/>
      <use xlink:href="#STIXGeneral-Regular-2212" transform="translate(101.849345 0.203125)"/>
      <use xlink:href="#STIXGeneral-Italic-3b8" transform="translate(184.789326 0.203125)"/>
      <use xlink:href="#STIXGeneral-Regular-31" transform="translate(232.789311 -13.025) scale(0.7)"/>
     </g>
    </g>
   </g>
   <g id="matplotlib.axis_6">
    <g id="ytick_5">
     <g id="line2d_16">
      <g>
       <use xlink:href="#md7c2127d0d" x="47.1275" y="185.107611" style="stroke: #000000; stroke-width: 0.8"/>
      </g>
     </g>
     <g id="text_20">
      <!-- 67 -->
      <g transform="translate(25.8325 190.833861) scale(0.16 -0.16)">
       <use xlink:href="#ArialMT-36"/>
       <use xlink:href="#ArialMT-37" transform="translate(55.615234 0)"/>
      </g>
     </g>
    </g>
    <g id="ytick_6">
     <g id="line2d_17">
      <g>
       <use xlink:href="#md7c2127d0d" x="47.1275" y="148.951089" style="stroke: #000000; stroke-width: 0.8"/>
      </g>
     </g>
     <g id="text_21">
      <!-- 68 -->
      <g transform="translate(25.8325 154.677339) scale(0.16 -0.16)">
       <defs>
        <path id="ArialMT-38" d="M 1131 2484 
Q 781 2613 612 2850 
Q 444 3088 444 3419 
Q 444 3919 803 4259 
Q 1163 4600 1759 4600 
Q 2359 4600 2725 4251 
Q 3091 3903 3091 3403 
Q 3091 3084 2923 2848 
Q 2756 2613 2416 2484 
Q 2838 2347 3058 2040 
Q 3278 1734 3278 1309 
Q 3278 722 2862 322 
Q 2447 -78 1769 -78 
Q 1091 -78 675 323 
Q 259 725 259 1325 
Q 259 1772 486 2073 
Q 713 2375 1131 2484 
z
M 1019 3438 
Q 1019 3113 1228 2906 
Q 1438 2700 1772 2700 
Q 2097 2700 2305 2904 
Q 2513 3109 2513 3406 
Q 2513 3716 2298 3927 
Q 2084 4138 1766 4138 
Q 1444 4138 1231 3931 
Q 1019 3725 1019 3438 
z
M 838 1322 
Q 838 1081 952 856 
Q 1066 631 1291 507 
Q 1516 384 1775 384 
Q 2178 384 2440 643 
Q 2703 903 2703 1303 
Q 2703 1709 2433 1975 
Q 2163 2241 1756 2241 
Q 1359 2241 1098 1978 
Q 838 1716 838 1322 
z
" transform="scale(0.015625)"/>
       </defs>
       <use xlink:href="#ArialMT-36"/>
       <use xlink:href="#ArialMT-38" transform="translate(55.615234 0)"/>
      </g>
     </g>
    </g>
    <g id="text_22">
     <!-- $d \theta_{1} / dt $ -->
     <g transform="translate(18.6525 198.609604) rotate(-90) scale(0.16 -0.16)">
      <use xlink:href="#STIXGeneral-Italic-64" transform="translate(0 0.703125)"/>
      <use xlink:href="#STIXGeneral-Italic-3b8" transform="translate(49.999985 0.703125)"/>
      <use xlink:href="#STIXGeneral-Regular-31" transform="translate(97.999969 -12.525) scale(0.7)"/>
      <use xlink:href="#STIXGeneral-Regular-2f" transform="translate(137.409334 0.703125)"/>
      <use xlink:href="#STIXGeneral-Italic-64" transform="translate(165.209322 0.703125)"/>
      <use xlink:href="#STIXGeneral-Italic-74" transform="translate(215.209306 0.703125)"/>
     </g>
    </g>
   </g>
   <g id="line2d_18">
    <path d="M 50.4358 177.657287 
L 52.717387 176.013137 
L 54.998973 174.64257 
L 57.28056 173.710943 
L 59.562146 173.320386 
L 61.843733 173.494203 
L 64.125319 174.174851 
L 66.406906 175.235762 
L 68.688492 176.504777 
L 70.970079 177.794849 
L 73.251665 178.936394 
L 75.533252 179.80542 
L 77.814838 180.342377 
L 80.096425 180.558438 
L 82.378011 180.528269 
L 84.659598 180.37087 
L 86.941184 180.222273 
L 89.222771 180.205398 
L 91.504357 180.402866 
L 93.785944 180.83801 
L 96.06753 181.467767 
L 98.349116 182.188884 
L 100.630703 182.856396 
L 102.912289 183.310964 
L 105.193876 183.410012 
L 107.475462 183.056816 
L 109.757049 182.222056 
L 112.038635 180.953654 
L 114.320222 179.372892 
L 116.601808 177.657287 
" clip-path="url(#pca56a67a51)" style="fill: none; stroke: #00bfbf; stroke-width: 2; stroke-linecap: square"/>
   </g>
   <g id="patch_13">
    <path d="M 47.1275 215.246126 
L 47.1275 142.933082 
" style="fill: none; stroke: #000000; stroke-width: 0.8; stroke-linejoin: miter; stroke-linecap: square"/>
   </g>
   <g id="patch_14">
    <path d="M 119.910109 215.246126 
L 119.910109 142.933082 
" style="fill: none; stroke: #000000; stroke-width: 0.8; stroke-linejoin: miter; stroke-linecap: square"/>
   </g>
   <g id="patch_15">
    <path d="M 47.1275 215.246126 
L 119.910109 215.246126 
" style="fill: none; stroke: #000000; stroke-width: 0.8; stroke-linejoin: miter; stroke-linecap: square"/>
   </g>
   <g id="patch_16">
    <path d="M 47.1275 142.933082 
L 119.910109 142.933082 
" style="fill: none; stroke: #000000; stroke-width: 0.8; stroke-linejoin: miter; stroke-linecap: square"/>
   </g>
  </g>
  <g id="axes_5">
   <g id="text_23">
    <!-- to $\theta_{1}$ -->
    <g transform="translate(184.752796 203.193952) scale(0.2 -0.2)">
     <use xlink:href="#ArialMT-74" transform="translate(0 0.03125)"/>
     <use xlink:href="#ArialMT-6f" transform="translate(27.783203 0.03125)"/>
     <use xlink:href="#ArialMT-20" transform="translate(83.398438 0.03125)"/>
     <use xlink:href="#STIXGeneral-Italic-3b8" transform="translate(111.181641 0.03125)"/>
     <use xlink:href="#STIXGeneral-Regular-31" transform="translate(159.181625 -13.196875) scale(0.7)"/>
    </g>
   </g>
  </g>
  <g id="axes_6">
   <g id="patch_17">
    <path d="M 309.144891 215.246126 
L 381.9275 215.246126 
L 381.9275 142.933082 
L 309.144891 142.933082 
z
" style="fill: #ffffff"/>
   </g>
   <g id="matplotlib.axis_7">
    <g id="xtick_10">
     <g id="line2d_19">
      <g>
       <use xlink:href="#m083c08fada" x="312.453192" y="215.246126" style="stroke: #000000; stroke-width: 0.8"/>
      </g>
     </g>
     <g id="text_24">
      <!-- $0$ -->
      <g transform="translate(308.453192 230.198626) scale(0.16 -0.16)">
       <use xlink:href="#STIXGeneral-Regular-30" transform="translate(0 0.40625)"/>
      </g>
     </g>
    </g>
    <g id="xtick_11">
     <g id="line2d_20">
      <g>
       <use xlink:href="#m083c08fada" x="345.536196" y="215.246126" style="stroke: #000000; stroke-width: 0.8"/>
      </g>
     </g>
     <g id="text_25">
      <!-- $\pi$ -->
      <g transform="translate(341.456196 230.198626) scale(0.16 -0.16)">
       <use xlink:href="#STIXGeneral-Italic-3c0" transform="translate(0 0.203125)"/>
      </g>
     </g>
    </g>
    <g id="xtick_12">
     <g id="line2d_21">
      <g>
       <use xlink:href="#m083c08fada" x="378.6192" y="215.246126" style="stroke: #000000; stroke-width: 0.8"/>
      </g>
     </g>
     <g id="text_26">
      <!-- $2 \pi$ -->
      <g transform="translate(370.5392 230.198626) scale(0.16 -0.16)">
       <use xlink:href="#STIXGeneral-Regular-32" transform="translate(0 0.40625)"/>
       <use xlink:href="#STIXGeneral-Italic-3c0" transform="translate(49.999985 0.40625)"/>
      </g>
     </g>
    </g>
    <g id="text_27">
     <!-- $\theta_{2} - \theta_{1} $ -->
     <g transform="translate(323.696196 248.831126) scale(0.16 -0.16)">
      <use xlink:href="#STIXGeneral-Italic-3b8" transform="translate(0 0.203125)"/>
      <use xlink:href="#STIXGeneral-Regular-32" transform="translate(47.999985 -13.025) scale(0.7)"/>
      <use xlink:href="#STIXGeneral-Regular-2212" transform="translate(101.849345 0.203125)"/>
      <use xlink:href="#STIXGeneral-Italic-3b8" transform="translate(184.789326 0.203125)"/>
      <use xlink:href="#STIXGeneral-Regular-31" transform="translate(232.789311 -13.025) scale(0.7)"/>
     </g>
    </g>
   </g>
   <g id="matplotlib.axis_8">
    <g id="ytick_7">
     <g id="line2d_22">
      <g>
       <use xlink:href="#md7c2127d0d" x="309.144891" y="185.107611" style="stroke: #000000; stroke-width: 0.8"/>
      </g>
     </g>
     <g id="text_28">
      <!-- 67 -->
      <g transform="translate(287.849891 190.833861) scale(0.16 -0.16)">
       <use xlink:href="#ArialMT-36"/>
       <use xlink:href="#ArialMT-37" transform="translate(55.615234 0)"/>
      </g>
     </g>
    </g>
    <g id="ytick_8">
     <g id="line2d_23">
      <g>
       <use xlink:href="#md7c2127d0d" x="309.144891" y="148.951089" style="stroke: #000000; stroke-width: 0.8"/>
      </g>
     </g>
     <g id="text_29">
      <!-- 68 -->
      <g transform="translate(287.849891 154.677339) scale(0.16 -0.16)">
       <use xlink:href="#ArialMT-36"/>
       <use xlink:href="#ArialMT-38" transform="translate(55.615234 0)"/>
      </g>
     </g>
    </g>
    <g id="text_30">
     <!-- $d \theta_{1} / dt $ -->
     <g transform="translate(280.669891 198.609604) rotate(-90) scale(0.16 -0.16)">
      <use xlink:href="#STIXGeneral-Italic-64" transform="translate(0 0.703125)"/>
      <use xlink:href="#STIXGeneral-Italic-3b8" transform="translate(49.999985 0.703125)"/>
      <use xlink:href="#STIXGeneral-Regular-31" transform="translate(97.999969 -12.525) scale(0.7)"/>
      <use xlink:href="#STIXGeneral-Regular-2f" transform="translate(137.409334 0.703125)"/>
      <use xlink:href="#STIXGeneral-Italic-64" transform="translate(165.209322 0.703125)"/>
      <use xlink:href="#STIXGeneral-Italic-74" transform="translate(215.209306 0.703125)"/>
     </g>
    </g>
   </g>
   <g id="line2d_24">
    <path d="M 312.453192 179.119485 
L 314.734778 179.123111 
L 317.016365 179.126143 
L 319.297951 179.127636 
L 321.579538 179.126684 
L 323.861124 179.122621 
L 326.142711 179.115179 
L 328.424297 179.104589 
L 330.705884 179.091588 
L 332.98747 179.077344 
L 335.269056 179.063294 
L 337.550643 179.050938 
L 339.832229 179.041608 
L 342.113816 179.036273 
L 344.395402 179.035389 
L 346.676989 179.038842 
L 348.958575 179.045985 
L 351.240162 179.055751 
L 353.521748 179.066846 
L 355.803335 179.077959 
L 358.084921 179.087972 
L 360.366508 179.096122 
L 362.648094 179.102092 
L 364.929681 179.106014 
L 367.211267 179.108386 
L 369.492854 179.109922 
L 371.77444 179.111369 
L 374.056027 179.113319 
L 376.337613 179.116058 
L 378.6192 179.119485 
" clip-path="url(#pdb2c049ebb)" style="fill: none; stroke: #00bfbf; stroke-width: 2; stroke-linecap: square"/>
   </g>
   <g id="patch_18">
    <path d="M 309.144891 215.246126 
L 309.144891 142.933082 
" style="fill: none; stroke: #000000; stroke-width: 0.8; stroke-linejoin: miter; stroke-linecap: square"/>
   </g>
   <g id="patch_19">
    <path d="M 381.9275 215.246126 
L 381.9275 142.933082 
" style="fill: none; stroke: #000000; stroke-width: 0.8; stroke-linejoin: miter; stroke-linecap: square"/>
   </g>
   <g id="patch_20">
    <path d="M 309.144891 215.246126 
L 381.9275 215.246126 
" style="fill: none; stroke: #000000; stroke-width: 0.8; stroke-linejoin: miter; stroke-linecap: square"/>
   </g>
   <g id="patch_21">
    <path d="M 309.144891 142.933082 
L 381.9275 142.933082 
" style="fill: none; stroke: #000000; stroke-width: 0.8; stroke-linejoin: miter; stroke-linecap: square"/>
   </g>
  </g>
  <g id="axes_7">
   <g id="patch_22">
    <path d="M 47.1275 345.409604 
L 119.910109 345.409604 
L 119.910109 273.096561 
L 47.1275 273.096561 
z
" style="fill: #ffffff"/>
   </g>
   <g id="matplotlib.axis_9">
    <g id="xtick_13">
     <g id="line2d_25">
      <g>
       <use xlink:href="#m083c08fada" x="50.4358" y="345.409604" style="stroke: #000000; stroke-width: 0.8"/>
      </g>
     </g>
     <g id="text_31">
      <!-- $0$ -->
      <g transform="translate(46.4358 360.362104) scale(0.16 -0.16)">
       <use xlink:href="#STIXGeneral-Regular-30" transform="translate(0 0.40625)"/>
      </g>
     </g>
    </g>
    <g id="xtick_14">
     <g id="line2d_26">
      <g>
       <use xlink:href="#m083c08fada" x="83.518804" y="345.409604" style="stroke: #000000; stroke-width: 0.8"/>
      </g>
     </g>
     <g id="text_32">
      <!-- $\pi$ -->
      <g transform="translate(79.438804 360.362104) scale(0.16 -0.16)">
       <use xlink:href="#STIXGeneral-Italic-3c0" transform="translate(0 0.203125)"/>
      </g>
     </g>
    </g>
    <g id="xtick_15">
     <g id="line2d_27">
      <g>
       <use xlink:href="#m083c08fada" x="116.601808" y="345.409604" style="stroke: #000000; stroke-width: 0.8"/>
      </g>
     </g>
     <g id="text_33">
      <!-- $2 \pi$ -->
      <g transform="translate(108.521808 360.362104) scale(0.16 -0.16)">
       <use xlink:href="#STIXGeneral-Regular-32" transform="translate(0 0.40625)"/>
       <use xlink:href="#STIXGeneral-Italic-3c0" transform="translate(49.999985 0.40625)"/>
      </g>
     </g>
    </g>
    <g id="text_34">
     <!-- $\theta_{0} - \theta_{2} $ -->
     <g transform="translate(61.678804 378.994604) scale(0.16 -0.16)">
      <use xlink:href="#STIXGeneral-Italic-3b8" transform="translate(0 0.203125)"/>
      <use xlink:href="#STIXGeneral-Regular-30" transform="translate(47.999985 -13.025) scale(0.7)"/>
      <use xlink:href="#STIXGeneral-Regular-2212" transform="translate(101.849345 0.203125)"/>
      <use xlink:href="#STIXGeneral-Italic-3b8" transform="translate(184.789326 0.203125)"/>
      <use xlink:href="#STIXGeneral-Regular-32" transform="translate(232.789311 -13.025) scale(0.7)"/>
     </g>
    </g>
   </g>
   <g id="matplotlib.axis_10">
    <g id="ytick_9">
     <g id="line2d_28">
      <g>
       <use xlink:href="#md7c2127d0d" x="47.1275" y="312.990785" style="stroke: #000000; stroke-width: 0.8"/>
      </g>
     </g>
     <g id="text_35">
      <!-- 68 -->
      <g transform="translate(25.8325 318.717035) scale(0.16 -0.16)">
       <use xlink:href="#ArialMT-36"/>
       <use xlink:href="#ArialMT-38" transform="translate(55.615234 0)"/>
      </g>
     </g>
    </g>
    <g id="ytick_10">
     <g id="line2d_29">
      <g>
       <use xlink:href="#md7c2127d0d" x="47.1275" y="276.834263" style="stroke: #000000; stroke-width: 0.8"/>
      </g>
     </g>
     <g id="text_36">
      <!-- 69 -->
      <g transform="translate(25.8325 282.560513) scale(0.16 -0.16)">
       <defs>
        <path id="ArialMT-39" d="M 350 1059 
L 891 1109 
Q 959 728 1153 556 
Q 1347 384 1650 384 
Q 1909 384 2104 503 
Q 2300 622 2425 820 
Q 2550 1019 2634 1356 
Q 2719 1694 2719 2044 
Q 2719 2081 2716 2156 
Q 2547 1888 2255 1720 
Q 1963 1553 1622 1553 
Q 1053 1553 659 1965 
Q 266 2378 266 3053 
Q 266 3750 677 4175 
Q 1088 4600 1706 4600 
Q 2153 4600 2523 4359 
Q 2894 4119 3086 3673 
Q 3278 3228 3278 2384 
Q 3278 1506 3087 986 
Q 2897 466 2520 194 
Q 2144 -78 1638 -78 
Q 1100 -78 759 220 
Q 419 519 350 1059 
z
M 2653 3081 
Q 2653 3566 2395 3850 
Q 2138 4134 1775 4134 
Q 1400 4134 1122 3828 
Q 844 3522 844 3034 
Q 844 2597 1108 2323 
Q 1372 2050 1759 2050 
Q 2150 2050 2401 2323 
Q 2653 2597 2653 3081 
z
" transform="scale(0.015625)"/>
       </defs>
       <use xlink:href="#ArialMT-36"/>
       <use xlink:href="#ArialMT-39" transform="translate(55.615234 0)"/>
      </g>
     </g>
    </g>
    <g id="text_37">
     <!-- $d \theta_{2} / dt $ -->
     <g transform="translate(18.6525 328.773082) rotate(-90) scale(0.16 -0.16)">
      <use xlink:href="#STIXGeneral-Italic-64" transform="translate(0 0.703125)"/>
      <use xlink:href="#STIXGeneral-Italic-3b8" transform="translate(49.999985 0.703125)"/>
      <use xlink:href="#STIXGeneral-Regular-32" transform="translate(97.999969 -12.525) scale(0.7)"/>
      <use xlink:href="#STIXGeneral-Regular-2f" transform="translate(137.409334 0.703125)"/>
      <use xlink:href="#STIXGeneral-Italic-64" transform="translate(165.209322 0.703125)"/>
      <use xlink:href="#STIXGeneral-Italic-74" transform="translate(215.209306 0.703125)"/>
     </g>
    </g>
   </g>
   <g id="line2d_30">
    <path d="M 50.4358 309.272743 
L 52.717387 307.576047 
L 54.998973 306.081338 
L 57.28056 304.961945 
L 59.562146 304.331687 
L 61.843733 304.228184 
L 64.125319 304.609593 
L 66.406906 305.365194 
L 68.688492 306.337736 
L 70.970079 307.353326 
L 73.251665 308.253302 
L 75.533252 308.922195 
L 77.814838 309.306702 
L 80.096425 309.422244 
L 82.378011 309.346074 
L 84.659598 309.198384 
L 86.941184 309.115128 
L 89.222771 309.217808 
L 91.504357 309.586056 
L 93.785944 310.238298 
L 96.06753 311.124311 
L 98.349116 312.131209 
L 100.630703 313.101938 
L 102.912289 313.862941 
L 105.193876 314.255971 
L 107.475462 314.168161 
L 109.757049 313.554768 
L 112.038635 312.450297 
L 114.320222 310.965808 
L 116.601808 309.272743 
" clip-path="url(#paa017c3896)" style="fill: none; stroke: #00bfbf; stroke-width: 2; stroke-linecap: square"/>
   </g>
   <g id="patch_23">
    <path d="M 47.1275 345.409604 
L 47.1275 273.096561 
" style="fill: none; stroke: #000000; stroke-width: 0.8; stroke-linejoin: miter; stroke-linecap: square"/>
   </g>
   <g id="patch_24">
    <path d="M 119.910109 345.409604 
L 119.910109 273.096561 
" style="fill: none; stroke: #000000; stroke-width: 0.8; stroke-linejoin: miter; stroke-linecap: square"/>
   </g>
   <g id="patch_25">
    <path d="M 47.1275 345.409604 
L 119.910109 345.409604 
" style="fill: none; stroke: #000000; stroke-width: 0.8; stroke-linejoin: miter; stroke-linecap: square"/>
   </g>
   <g id="patch_26">
    <path d="M 47.1275 273.096561 
L 119.910109 273.096561 
" style="fill: none; stroke: #000000; stroke-width: 0.8; stroke-linejoin: miter; stroke-linecap: square"/>
   </g>
  </g>
  <g id="axes_8">
   <g id="patch_27">
    <path d="M 178.136196 345.409604 
L 250.918804 345.409604 
L 250.918804 273.096561 
L 178.136196 273.096561 
z
" style="fill: #ffffff"/>
   </g>
   <g id="matplotlib.axis_11">
    <g id="xtick_16">
     <g id="line2d_31">
      <g>
       <use xlink:href="#m083c08fada" x="181.444496" y="345.409604" style="stroke: #000000; stroke-width: 0.8"/>
      </g>
     </g>
     <g id="text_38">
      <!-- $0$ -->
      <g transform="translate(177.444496 360.362104) scale(0.16 -0.16)">
       <use xlink:href="#STIXGeneral-Regular-30" transform="translate(0 0.40625)"/>
      </g>
     </g>
    </g>
    <g id="xtick_17">
     <g id="line2d_32">
      <g>
       <use xlink:href="#m083c08fada" x="214.5275" y="345.409604" style="stroke: #000000; stroke-width: 0.8"/>
      </g>
     </g>
     <g id="text_39">
      <!-- $\pi$ -->
      <g transform="translate(210.4475 360.362104) scale(0.16 -0.16)">
       <use xlink:href="#STIXGeneral-Italic-3c0" transform="translate(0 0.203125)"/>
      </g>
     </g>
    </g>
    <g id="xtick_18">
     <g id="line2d_33">
      <g>
       <use xlink:href="#m083c08fada" x="247.610504" y="345.409604" style="stroke: #000000; stroke-width: 0.8"/>
      </g>
     </g>
     <g id="text_40">
      <!-- $2 \pi$ -->
      <g transform="translate(239.530504 360.362104) scale(0.16 -0.16)">
       <use xlink:href="#STIXGeneral-Regular-32" transform="translate(0 0.40625)"/>
       <use xlink:href="#STIXGeneral-Italic-3c0" transform="translate(49.999985 0.40625)"/>
      </g>
     </g>
    </g>
    <g id="text_41">
     <!-- $\theta_{1} - \theta_{2} $ -->
     <g transform="translate(192.6875 378.994604) scale(0.16 -0.16)">
      <use xlink:href="#STIXGeneral-Italic-3b8" transform="translate(0 0.203125)"/>
      <use xlink:href="#STIXGeneral-Regular-31" transform="translate(47.999985 -13.025) scale(0.7)"/>
      <use xlink:href="#STIXGeneral-Regular-2212" transform="translate(101.849345 0.203125)"/>
      <use xlink:href="#STIXGeneral-Italic-3b8" transform="translate(184.789326 0.203125)"/>
      <use xlink:href="#STIXGeneral-Regular-32" transform="translate(232.789311 -13.025) scale(0.7)"/>
     </g>
    </g>
   </g>
   <g id="matplotlib.axis_12">
    <g id="ytick_11">
     <g id="line2d_34">
      <g>
       <use xlink:href="#md7c2127d0d" x="178.136196" y="312.990785" style="stroke: #000000; stroke-width: 0.8"/>
      </g>
     </g>
     <g id="text_42">
      <!-- 68 -->
      <g transform="translate(156.841196 318.717035) scale(0.16 -0.16)">
       <use xlink:href="#ArialMT-36"/>
       <use xlink:href="#ArialMT-38" transform="translate(55.615234 0)"/>
      </g>
     </g>
    </g>
    <g id="ytick_12">
     <g id="line2d_35">
      <g>
       <use xlink:href="#md7c2127d0d" x="178.136196" y="276.834263" style="stroke: #000000; stroke-width: 0.8"/>
      </g>
     </g>
     <g id="text_43">
      <!-- 69 -->
      <g transform="translate(156.841196 282.560513) scale(0.16 -0.16)">
       <use xlink:href="#ArialMT-36"/>
       <use xlink:href="#ArialMT-39" transform="translate(55.615234 0)"/>
      </g>
     </g>
    </g>
    <g id="text_44">
     <!-- $d \theta_{2} / dt $ -->
     <g transform="translate(149.661196 328.773082) rotate(-90) scale(0.16 -0.16)">
      <use xlink:href="#STIXGeneral-Italic-64" transform="translate(0 0.703125)"/>
      <use xlink:href="#STIXGeneral-Italic-3b8" transform="translate(49.999985 0.703125)"/>
      <use xlink:href="#STIXGeneral-Regular-32" transform="translate(97.999969 -12.525) scale(0.7)"/>
      <use xlink:href="#STIXGeneral-Regular-2f" transform="translate(137.409334 0.703125)"/>
      <use xlink:href="#STIXGeneral-Italic-64" transform="translate(165.209322 0.703125)"/>
      <use xlink:href="#STIXGeneral-Italic-74" transform="translate(215.209306 0.703125)"/>
     </g>
    </g>
   </g>
   <g id="line2d_36">
    <path d="M 181.444496 307.817242 
L 183.726083 306.145166 
L 186.007669 304.740728 
L 188.289255 303.774604 
L 190.570842 303.354954 
L 192.852428 303.510722 
L 195.134015 304.188561 
L 197.415601 305.263843 
L 199.697188 306.563659 
L 201.978774 307.897581 
L 204.260361 309.090524 
L 206.541947 310.011774 
L 208.823534 310.594945 
L 211.10512 310.845398 
L 213.386707 310.833954 
L 215.668293 310.678331 
L 217.94988 310.515972 
L 220.231466 310.473566 
L 222.513053 310.6391 
L 224.794639 311.041855 
L 227.076226 311.644187 
L 229.357812 312.346769 
L 231.639399 313.006388 
L 233.920985 313.463041 
L 236.202572 313.571293 
L 238.484158 313.230014 
L 240.765745 312.404864 
L 243.047331 311.139198 
L 245.328917 309.551157 
L 247.610504 307.817242 
" clip-path="url(#pd5008b2460)" style="fill: none; stroke: #00bfbf; stroke-width: 2; stroke-linecap: square"/>
   </g>
   <g id="patch_28">
    <path d="M 178.136196 345.409604 
L 178.136196 273.096561 
" style="fill: none; stroke: #000000; stroke-width: 0.8; stroke-linejoin: miter; stroke-linecap: square"/>
   </g>
   <g id="patch_29">
    <path d="M 250.918804 345.409604 
L 250.918804 273.096561 
" style="fill: none; stroke: #000000; stroke-width: 0.8; stroke-linejoin: miter; stroke-linecap: square"/>
   </g>
   <g id="patch_30">
    <path d="M 178.136196 345.409604 
L 250.918804 345.409604 
" style="fill: none; stroke: #000000; stroke-width: 0.8; stroke-linejoin: miter; stroke-linecap: square"/>
   </g>
   <g id="patch_31">
    <path d="M 178.136196 273.096561 
L 250.918804 273.096561 
" style="fill: none; stroke: #000000; stroke-width: 0.8; stroke-linejoin: miter; stroke-linecap: square"/>
   </g>
  </g>
  <g id="axes_9">
   <g id="text_45">
    <!-- to $\theta_{2}$ -->
    <g transform="translate(315.761492 333.35743) scale(0.2 -0.2)">
     <use xlink:href="#ArialMT-74" transform="translate(0 0.03125)"/>
     <use xlink:href="#ArialMT-6f" transform="translate(27.783203 0.03125)"/>
     <use xlink:href="#ArialMT-20" transform="translate(83.398438 0.03125)"/>
     <use xlink:href="#STIXGeneral-Italic-3b8" transform="translate(111.181641 0.03125)"/>
     <use xlink:href="#STIXGeneral-Regular-32" transform="translate(159.181625 -13.196875) scale(0.7)"/>
    </g>
   </g>
  </g>
 </g>
 <defs>
  <clipPath id="p86f284e2c3">
   <rect x="178.136196" y="12.769604" width="72.782609" height="72.313043"/>
  </clipPath>
  <clipPath id="pcf35f4037c">
   <rect x="309.144891" y="12.769604" width="72.782609" height="72.313043"/>
  </clipPath>
  <clipPath id="pca56a67a51">
   <rect x="47.1275" y="142.933082" width="72.782609" height="72.313043"/>
  </clipPath>
  <clipPath id="pdb2c049ebb">
   <rect x="309.144891" y="142.933082" width="72.782609" height="72.313043"/>
  </clipPath>
  <clipPath id="paa017c3896">
   <rect x="47.1275" y="273.096561" width="72.782609" height="72.313043"/>
  </clipPath>
  <clipPath id="pd5008b2460">
   <rect x="178.136196" y="273.096561" width="72.782609" height="72.313043"/>
  </clipPath>
 </defs>
</svg>
